<mxfile host="65bd71144e">
    <diagram id="HeWcyzL5djjeU64cD4zb" name="Page-1">
        <mxGraphModel dx="1199" dy="400" grid="1" gridSize="10" guides="1" tooltips="1" connect="1" arrows="1" fold="1" page="1" pageScale="1" pageWidth="850" pageHeight="1100" math="0" shadow="0">
            <root>
                <mxCell id="0"/>
                <mxCell id="1" parent="0"/>
                <mxCell id="2" value="roles_on_permissions" style="shape=table;startSize=30;container=1;collapsible=1;childLayout=tableLayout;fixedRows=1;rowLines=0;fontStyle=1;align=center;resizeLast=1;sketch=1;curveFitting=1;jiggle=2;rounded=1;fontFamily=Roboto;fontSource=https%3A%2F%2Ffonts.googleapis.com%2Fcss%3Ffamily%3DRoboto;" parent="1" vertex="1">
                    <mxGeometry x="320" y="280" width="160" height="120" as="geometry"/>
                </mxCell>
                <mxCell id="3" value="" style="shape=tableRow;horizontal=0;startSize=0;swimlaneHead=0;swimlaneBody=0;fillColor=none;collapsible=0;dropTarget=0;points=[[0,0.5],[1,0.5]];portConstraint=eastwest;top=0;left=0;right=0;bottom=0;fontFamily=Roboto;fontSource=https%3A%2F%2Ffonts.googleapis.com%2Fcss%3Ffamily%3DRoboto;" parent="2" vertex="1">
                    <mxGeometry y="30" width="160" height="30" as="geometry"/>
                </mxCell>
                <mxCell id="4" value="PK,FK1" style="shape=partialRectangle;connectable=0;fillColor=none;top=0;left=0;bottom=0;right=0;fontStyle=1;overflow=hidden;fontFamily=Roboto;fontSource=https%3A%2F%2Ffonts.googleapis.com%2Fcss%3Ffamily%3DRoboto;" parent="3" vertex="1">
                    <mxGeometry width="60" height="30" as="geometry">
                        <mxRectangle width="60" height="30" as="alternateBounds"/>
                    </mxGeometry>
                </mxCell>
                <mxCell id="5" value="role_id" style="shape=partialRectangle;connectable=0;fillColor=none;top=0;left=0;bottom=0;right=0;align=left;spacingLeft=6;fontStyle=5;overflow=hidden;fontFamily=Roboto;fontSource=https%3A%2F%2Ffonts.googleapis.com%2Fcss%3Ffamily%3DRoboto;" parent="3" vertex="1">
                    <mxGeometry x="60" width="100" height="30" as="geometry">
                        <mxRectangle width="100" height="30" as="alternateBounds"/>
                    </mxGeometry>
                </mxCell>
                <mxCell id="6" value="" style="shape=tableRow;horizontal=0;startSize=0;swimlaneHead=0;swimlaneBody=0;fillColor=none;collapsible=0;dropTarget=0;points=[[0,0.5],[1,0.5]];portConstraint=eastwest;top=0;left=0;right=0;bottom=1;fontFamily=Roboto;fontSource=https%3A%2F%2Ffonts.googleapis.com%2Fcss%3Ffamily%3DRoboto;" parent="2" vertex="1">
                    <mxGeometry y="60" width="160" height="30" as="geometry"/>
                </mxCell>
                <mxCell id="7" value="PK,FK2" style="shape=partialRectangle;connectable=0;fillColor=none;top=0;left=0;bottom=0;right=0;fontStyle=1;overflow=hidden;fontFamily=Roboto;fontSource=https%3A%2F%2Ffonts.googleapis.com%2Fcss%3Ffamily%3DRoboto;" parent="6" vertex="1">
                    <mxGeometry width="60" height="30" as="geometry">
                        <mxRectangle width="60" height="30" as="alternateBounds"/>
                    </mxGeometry>
                </mxCell>
                <mxCell id="8" value="permission_id" style="shape=partialRectangle;connectable=0;fillColor=none;top=0;left=0;bottom=0;right=0;align=left;spacingLeft=6;fontStyle=5;overflow=hidden;fontFamily=Roboto;fontSource=https%3A%2F%2Ffonts.googleapis.com%2Fcss%3Ffamily%3DRoboto;" parent="6" vertex="1">
                    <mxGeometry x="60" width="100" height="30" as="geometry">
                        <mxRectangle width="100" height="30" as="alternateBounds"/>
                    </mxGeometry>
                </mxCell>
                <mxCell id="9" value="" style="shape=tableRow;horizontal=0;startSize=0;swimlaneHead=0;swimlaneBody=0;fillColor=none;collapsible=0;dropTarget=0;points=[[0,0.5],[1,0.5]];portConstraint=eastwest;top=0;left=0;right=0;bottom=0;fontFamily=Roboto;fontSource=https%3A%2F%2Ffonts.googleapis.com%2Fcss%3Ffamily%3DRoboto;" parent="2" vertex="1">
                    <mxGeometry y="90" width="160" height="30" as="geometry"/>
                </mxCell>
                <mxCell id="10" value="" style="shape=partialRectangle;connectable=0;fillColor=none;top=0;left=0;bottom=0;right=0;editable=1;overflow=hidden;fontFamily=Roboto;fontSource=https%3A%2F%2Ffonts.googleapis.com%2Fcss%3Ffamily%3DRoboto;" parent="9" vertex="1">
                    <mxGeometry width="60" height="30" as="geometry">
                        <mxRectangle width="60" height="30" as="alternateBounds"/>
                    </mxGeometry>
                </mxCell>
                <mxCell id="11" value="created_at" style="shape=partialRectangle;connectable=0;fillColor=none;top=0;left=0;bottom=0;right=0;align=left;spacingLeft=6;overflow=hidden;fontFamily=Roboto;fontSource=https%3A%2F%2Ffonts.googleapis.com%2Fcss%3Ffamily%3DRoboto;" parent="9" vertex="1">
                    <mxGeometry x="60" width="100" height="30" as="geometry">
                        <mxRectangle width="100" height="30" as="alternateBounds"/>
                    </mxGeometry>
                </mxCell>
                <mxCell id="15" value="permissions" style="shape=table;startSize=30;container=1;collapsible=1;childLayout=tableLayout;fixedRows=1;rowLines=0;fontStyle=1;align=center;resizeLast=1;sketch=1;curveFitting=1;jiggle=2;rounded=1;fontFamily=Roboto;fontSource=https%3A%2F%2Ffonts.googleapis.com%2Fcss%3Ffamily%3DRoboto;" parent="1" vertex="1">
                    <mxGeometry x="560" y="280" width="160" height="240" as="geometry"/>
                </mxCell>
                <mxCell id="16" value="" style="shape=tableRow;horizontal=0;startSize=0;swimlaneHead=0;swimlaneBody=0;fillColor=none;collapsible=0;dropTarget=0;points=[[0,0.5],[1,0.5]];portConstraint=eastwest;top=0;left=0;right=0;bottom=1;fontFamily=Roboto;fontSource=https%3A%2F%2Ffonts.googleapis.com%2Fcss%3Ffamily%3DRoboto;" parent="15" vertex="1">
                    <mxGeometry y="30" width="160" height="30" as="geometry"/>
                </mxCell>
                <mxCell id="17" value="PK" style="shape=partialRectangle;connectable=0;fillColor=none;top=0;left=0;bottom=0;right=0;fontStyle=1;overflow=hidden;fontFamily=Roboto;fontSource=https%3A%2F%2Ffonts.googleapis.com%2Fcss%3Ffamily%3DRoboto;" parent="16" vertex="1">
                    <mxGeometry width="30" height="30" as="geometry">
                        <mxRectangle width="30" height="30" as="alternateBounds"/>
                    </mxGeometry>
                </mxCell>
                <mxCell id="18" value="id" style="shape=partialRectangle;connectable=0;fillColor=none;top=0;left=0;bottom=0;right=0;align=left;spacingLeft=6;fontStyle=5;overflow=hidden;fontFamily=Roboto;fontSource=https%3A%2F%2Ffonts.googleapis.com%2Fcss%3Ffamily%3DRoboto;" parent="16" vertex="1">
                    <mxGeometry x="30" width="130" height="30" as="geometry">
                        <mxRectangle width="130" height="30" as="alternateBounds"/>
                    </mxGeometry>
                </mxCell>
                <mxCell id="19" value="" style="shape=tableRow;horizontal=0;startSize=0;swimlaneHead=0;swimlaneBody=0;fillColor=none;collapsible=0;dropTarget=0;points=[[0,0.5],[1,0.5]];portConstraint=eastwest;top=0;left=0;right=0;bottom=0;fontFamily=Roboto;fontSource=https%3A%2F%2Ffonts.googleapis.com%2Fcss%3Ffamily%3DRoboto;" parent="15" vertex="1">
                    <mxGeometry y="60" width="160" height="30" as="geometry"/>
                </mxCell>
                <mxCell id="20" value="UN" style="shape=partialRectangle;connectable=0;fillColor=none;top=0;left=0;bottom=0;right=0;editable=1;overflow=hidden;fontFamily=Roboto;fontSource=https%3A%2F%2Ffonts.googleapis.com%2Fcss%3Ffamily%3DRoboto;" parent="19" vertex="1">
                    <mxGeometry width="30" height="30" as="geometry">
                        <mxRectangle width="30" height="30" as="alternateBounds"/>
                    </mxGeometry>
                </mxCell>
                <mxCell id="21" value="slug" style="shape=partialRectangle;connectable=0;fillColor=none;top=0;left=0;bottom=0;right=0;align=left;spacingLeft=6;overflow=hidden;fontFamily=Roboto;fontSource=https%3A%2F%2Ffonts.googleapis.com%2Fcss%3Ffamily%3DRoboto;" parent="19" vertex="1">
                    <mxGeometry x="30" width="130" height="30" as="geometry">
                        <mxRectangle width="130" height="30" as="alternateBounds"/>
                    </mxGeometry>
                </mxCell>
                <mxCell id="200" value="" style="shape=tableRow;horizontal=0;startSize=0;swimlaneHead=0;swimlaneBody=0;fillColor=none;collapsible=0;dropTarget=0;points=[[0,0.5],[1,0.5]];portConstraint=eastwest;top=0;left=0;right=0;bottom=0;fontFamily=Roboto;fontSource=https%3A%2F%2Ffonts.googleapis.com%2Fcss%3Ffamily%3DRoboto;" vertex="1" parent="15">
                    <mxGeometry y="90" width="160" height="30" as="geometry"/>
                </mxCell>
                <mxCell id="201" value="" style="shape=partialRectangle;connectable=0;fillColor=none;top=0;left=0;bottom=0;right=0;editable=1;overflow=hidden;fontFamily=Roboto;fontSource=https%3A%2F%2Ffonts.googleapis.com%2Fcss%3Ffamily%3DRoboto;" vertex="1" parent="200">
                    <mxGeometry width="30" height="30" as="geometry">
                        <mxRectangle width="30" height="30" as="alternateBounds"/>
                    </mxGeometry>
                </mxCell>
                <mxCell id="202" value="name" style="shape=partialRectangle;connectable=0;fillColor=none;top=0;left=0;bottom=0;right=0;align=left;spacingLeft=6;overflow=hidden;fontFamily=Roboto;fontSource=https%3A%2F%2Ffonts.googleapis.com%2Fcss%3Ffamily%3DRoboto;" vertex="1" parent="200">
                    <mxGeometry x="30" width="130" height="30" as="geometry">
                        <mxRectangle width="130" height="30" as="alternateBounds"/>
                    </mxGeometry>
                </mxCell>
                <mxCell id="44" value="" style="shape=tableRow;horizontal=0;startSize=0;swimlaneHead=0;swimlaneBody=0;fillColor=none;collapsible=0;dropTarget=0;points=[[0,0.5],[1,0.5]];portConstraint=eastwest;top=0;left=0;right=0;bottom=0;fontFamily=Roboto;fontSource=https%3A%2F%2Ffonts.googleapis.com%2Fcss%3Ffamily%3DRoboto;" parent="15" vertex="1">
                    <mxGeometry y="120" width="160" height="30" as="geometry"/>
                </mxCell>
                <mxCell id="45" value="" style="shape=partialRectangle;connectable=0;fillColor=none;top=0;left=0;bottom=0;right=0;editable=1;overflow=hidden;fontFamily=Roboto;fontSource=https%3A%2F%2Ffonts.googleapis.com%2Fcss%3Ffamily%3DRoboto;" parent="44" vertex="1">
                    <mxGeometry width="30" height="30" as="geometry">
                        <mxRectangle width="30" height="30" as="alternateBounds"/>
                    </mxGeometry>
                </mxCell>
                <mxCell id="46" value="description" style="shape=partialRectangle;connectable=0;fillColor=none;top=0;left=0;bottom=0;right=0;align=left;spacingLeft=6;overflow=hidden;fontFamily=Roboto;fontSource=https%3A%2F%2Ffonts.googleapis.com%2Fcss%3Ffamily%3DRoboto;" parent="44" vertex="1">
                    <mxGeometry x="30" width="130" height="30" as="geometry">
                        <mxRectangle width="130" height="30" as="alternateBounds"/>
                    </mxGeometry>
                </mxCell>
                <mxCell id="22" value="" style="shape=tableRow;horizontal=0;startSize=0;swimlaneHead=0;swimlaneBody=0;fillColor=none;collapsible=0;dropTarget=0;points=[[0,0.5],[1,0.5]];portConstraint=eastwest;top=0;left=0;right=0;bottom=0;fontFamily=Roboto;fontSource=https%3A%2F%2Ffonts.googleapis.com%2Fcss%3Ffamily%3DRoboto;" parent="15" vertex="1">
                    <mxGeometry y="150" width="160" height="30" as="geometry"/>
                </mxCell>
                <mxCell id="23" value="" style="shape=partialRectangle;connectable=0;fillColor=none;top=0;left=0;bottom=0;right=0;editable=1;overflow=hidden;fontFamily=Roboto;fontSource=https%3A%2F%2Ffonts.googleapis.com%2Fcss%3Ffamily%3DRoboto;" parent="22" vertex="1">
                    <mxGeometry width="30" height="30" as="geometry">
                        <mxRectangle width="30" height="30" as="alternateBounds"/>
                    </mxGeometry>
                </mxCell>
                <mxCell id="24" value="action" style="shape=partialRectangle;connectable=0;fillColor=none;top=0;left=0;bottom=0;right=0;align=left;spacingLeft=6;overflow=hidden;fontFamily=Roboto;fontSource=https%3A%2F%2Ffonts.googleapis.com%2Fcss%3Ffamily%3DRoboto;" parent="22" vertex="1">
                    <mxGeometry x="30" width="130" height="30" as="geometry">
                        <mxRectangle width="130" height="30" as="alternateBounds"/>
                    </mxGeometry>
                </mxCell>
                <mxCell id="25" value="" style="shape=tableRow;horizontal=0;startSize=0;swimlaneHead=0;swimlaneBody=0;fillColor=none;collapsible=0;dropTarget=0;points=[[0,0.5],[1,0.5]];portConstraint=eastwest;top=0;left=0;right=0;bottom=0;fontFamily=Roboto;fontSource=https%3A%2F%2Ffonts.googleapis.com%2Fcss%3Ffamily%3DRoboto;" parent="15" vertex="1">
                    <mxGeometry y="180" width="160" height="30" as="geometry"/>
                </mxCell>
                <mxCell id="26" value="" style="shape=partialRectangle;connectable=0;fillColor=none;top=0;left=0;bottom=0;right=0;editable=1;overflow=hidden;fontFamily=Roboto;fontSource=https%3A%2F%2Ffonts.googleapis.com%2Fcss%3Ffamily%3DRoboto;" parent="25" vertex="1">
                    <mxGeometry width="30" height="30" as="geometry">
                        <mxRectangle width="30" height="30" as="alternateBounds"/>
                    </mxGeometry>
                </mxCell>
                <mxCell id="27" value="entity" style="shape=partialRectangle;connectable=0;fillColor=none;top=0;left=0;bottom=0;right=0;align=left;spacingLeft=6;overflow=hidden;fontFamily=Roboto;fontSource=https%3A%2F%2Ffonts.googleapis.com%2Fcss%3Ffamily%3DRoboto;" parent="25" vertex="1">
                    <mxGeometry x="30" width="130" height="30" as="geometry">
                        <mxRectangle width="130" height="30" as="alternateBounds"/>
                    </mxGeometry>
                </mxCell>
                <mxCell id="47" value="" style="shape=tableRow;horizontal=0;startSize=0;swimlaneHead=0;swimlaneBody=0;fillColor=none;collapsible=0;dropTarget=0;points=[[0,0.5],[1,0.5]];portConstraint=eastwest;top=0;left=0;right=0;bottom=0;fontFamily=Roboto;fontSource=https%3A%2F%2Ffonts.googleapis.com%2Fcss%3Ffamily%3DRoboto;" parent="15" vertex="1">
                    <mxGeometry y="210" width="160" height="30" as="geometry"/>
                </mxCell>
                <mxCell id="48" value="" style="shape=partialRectangle;connectable=0;fillColor=none;top=0;left=0;bottom=0;right=0;editable=1;overflow=hidden;fontFamily=Roboto;fontSource=https%3A%2F%2Ffonts.googleapis.com%2Fcss%3Ffamily%3DRoboto;" parent="47" vertex="1">
                    <mxGeometry width="30" height="30" as="geometry">
                        <mxRectangle width="30" height="30" as="alternateBounds"/>
                    </mxGeometry>
                </mxCell>
                <mxCell id="49" value="created_at" style="shape=partialRectangle;connectable=0;fillColor=none;top=0;left=0;bottom=0;right=0;align=left;spacingLeft=6;overflow=hidden;fontFamily=Roboto;fontSource=https%3A%2F%2Ffonts.googleapis.com%2Fcss%3Ffamily%3DRoboto;" parent="47" vertex="1">
                    <mxGeometry x="30" width="130" height="30" as="geometry">
                        <mxRectangle width="130" height="30" as="alternateBounds"/>
                    </mxGeometry>
                </mxCell>
                <mxCell id="28" value="roles" style="shape=table;startSize=30;container=1;collapsible=1;childLayout=tableLayout;fixedRows=1;rowLines=0;fontStyle=1;align=center;resizeLast=1;sketch=1;curveFitting=1;jiggle=2;rounded=1;fontFamily=Roboto;fontSource=https%3A%2F%2Ffonts.googleapis.com%2Fcss%3Ffamily%3DRoboto;" parent="1" vertex="1">
                    <mxGeometry x="80" y="280" width="160" height="210" as="geometry"/>
                </mxCell>
                <mxCell id="29" value="" style="shape=tableRow;horizontal=0;startSize=0;swimlaneHead=0;swimlaneBody=0;fillColor=none;collapsible=0;dropTarget=0;points=[[0,0.5],[1,0.5]];portConstraint=eastwest;top=0;left=0;right=0;bottom=1;fontFamily=Roboto;fontSource=https%3A%2F%2Ffonts.googleapis.com%2Fcss%3Ffamily%3DRoboto;" parent="28" vertex="1">
                    <mxGeometry y="30" width="160" height="30" as="geometry"/>
                </mxCell>
                <mxCell id="30" value="PK" style="shape=partialRectangle;connectable=0;fillColor=none;top=0;left=0;bottom=0;right=0;fontStyle=1;overflow=hidden;fontFamily=Roboto;fontSource=https%3A%2F%2Ffonts.googleapis.com%2Fcss%3Ffamily%3DRoboto;" parent="29" vertex="1">
                    <mxGeometry width="30" height="30" as="geometry">
                        <mxRectangle width="30" height="30" as="alternateBounds"/>
                    </mxGeometry>
                </mxCell>
                <mxCell id="31" value="id" style="shape=partialRectangle;connectable=0;fillColor=none;top=0;left=0;bottom=0;right=0;align=left;spacingLeft=6;fontStyle=5;overflow=hidden;fontFamily=Roboto;fontSource=https%3A%2F%2Ffonts.googleapis.com%2Fcss%3Ffamily%3DRoboto;" parent="29" vertex="1">
                    <mxGeometry x="30" width="130" height="30" as="geometry">
                        <mxRectangle width="130" height="30" as="alternateBounds"/>
                    </mxGeometry>
                </mxCell>
                <mxCell id="32" value="" style="shape=tableRow;horizontal=0;startSize=0;swimlaneHead=0;swimlaneBody=0;fillColor=none;collapsible=0;dropTarget=0;points=[[0,0.5],[1,0.5]];portConstraint=eastwest;top=0;left=0;right=0;bottom=0;fontFamily=Roboto;fontSource=https%3A%2F%2Ffonts.googleapis.com%2Fcss%3Ffamily%3DRoboto;" parent="28" vertex="1">
                    <mxGeometry y="60" width="160" height="30" as="geometry"/>
                </mxCell>
                <mxCell id="33" value="UN" style="shape=partialRectangle;connectable=0;fillColor=none;top=0;left=0;bottom=0;right=0;editable=1;overflow=hidden;fontFamily=Roboto;fontSource=https%3A%2F%2Ffonts.googleapis.com%2Fcss%3Ffamily%3DRoboto;" parent="32" vertex="1">
                    <mxGeometry width="30" height="30" as="geometry">
                        <mxRectangle width="30" height="30" as="alternateBounds"/>
                    </mxGeometry>
                </mxCell>
                <mxCell id="34" value="slug" style="shape=partialRectangle;connectable=0;fillColor=none;top=0;left=0;bottom=0;right=0;align=left;spacingLeft=6;overflow=hidden;fontFamily=Roboto;fontSource=https%3A%2F%2Ffonts.googleapis.com%2Fcss%3Ffamily%3DRoboto;" parent="32" vertex="1">
                    <mxGeometry x="30" width="130" height="30" as="geometry">
                        <mxRectangle width="130" height="30" as="alternateBounds"/>
                    </mxGeometry>
                </mxCell>
                <mxCell id="35" value="" style="shape=tableRow;horizontal=0;startSize=0;swimlaneHead=0;swimlaneBody=0;fillColor=none;collapsible=0;dropTarget=0;points=[[0,0.5],[1,0.5]];portConstraint=eastwest;top=0;left=0;right=0;bottom=0;fontFamily=Roboto;fontSource=https%3A%2F%2Ffonts.googleapis.com%2Fcss%3Ffamily%3DRoboto;" parent="28" vertex="1">
                    <mxGeometry y="90" width="160" height="30" as="geometry"/>
                </mxCell>
                <mxCell id="36" value="" style="shape=partialRectangle;connectable=0;fillColor=none;top=0;left=0;bottom=0;right=0;editable=1;overflow=hidden;fontFamily=Roboto;fontSource=https%3A%2F%2Ffonts.googleapis.com%2Fcss%3Ffamily%3DRoboto;" parent="35" vertex="1">
                    <mxGeometry width="30" height="30" as="geometry">
                        <mxRectangle width="30" height="30" as="alternateBounds"/>
                    </mxGeometry>
                </mxCell>
                <mxCell id="37" value="name" style="shape=partialRectangle;connectable=0;fillColor=none;top=0;left=0;bottom=0;right=0;align=left;spacingLeft=6;overflow=hidden;fontFamily=Roboto;fontSource=https%3A%2F%2Ffonts.googleapis.com%2Fcss%3Ffamily%3DRoboto;" parent="35" vertex="1">
                    <mxGeometry x="30" width="130" height="30" as="geometry">
                        <mxRectangle width="130" height="30" as="alternateBounds"/>
                    </mxGeometry>
                </mxCell>
                <mxCell id="191" value="" style="shape=tableRow;horizontal=0;startSize=0;swimlaneHead=0;swimlaneBody=0;fillColor=none;collapsible=0;dropTarget=0;points=[[0,0.5],[1,0.5]];portConstraint=eastwest;top=0;left=0;right=0;bottom=0;fontFamily=Roboto;fontSource=https%3A%2F%2Ffonts.googleapis.com%2Fcss%3Ffamily%3DRoboto;" parent="28" vertex="1">
                    <mxGeometry y="120" width="160" height="30" as="geometry"/>
                </mxCell>
                <mxCell id="192" value="" style="shape=partialRectangle;connectable=0;fillColor=none;top=0;left=0;bottom=0;right=0;editable=1;overflow=hidden;fontFamily=Roboto;fontSource=https%3A%2F%2Ffonts.googleapis.com%2Fcss%3Ffamily%3DRoboto;" parent="191" vertex="1">
                    <mxGeometry width="30" height="30" as="geometry">
                        <mxRectangle width="30" height="30" as="alternateBounds"/>
                    </mxGeometry>
                </mxCell>
                <mxCell id="193" value="description" style="shape=partialRectangle;connectable=0;fillColor=none;top=0;left=0;bottom=0;right=0;align=left;spacingLeft=6;overflow=hidden;fontFamily=Roboto;fontSource=https%3A%2F%2Ffonts.googleapis.com%2Fcss%3Ffamily%3DRoboto;" parent="191" vertex="1">
                    <mxGeometry x="30" width="130" height="30" as="geometry">
                        <mxRectangle width="130" height="30" as="alternateBounds"/>
                    </mxGeometry>
                </mxCell>
                <mxCell id="38" value="" style="shape=tableRow;horizontal=0;startSize=0;swimlaneHead=0;swimlaneBody=0;fillColor=none;collapsible=0;dropTarget=0;points=[[0,0.5],[1,0.5]];portConstraint=eastwest;top=0;left=0;right=0;bottom=0;fontFamily=Roboto;fontSource=https%3A%2F%2Ffonts.googleapis.com%2Fcss%3Ffamily%3DRoboto;" parent="28" vertex="1">
                    <mxGeometry y="150" width="160" height="30" as="geometry"/>
                </mxCell>
                <mxCell id="39" value="" style="shape=partialRectangle;connectable=0;fillColor=none;top=0;left=0;bottom=0;right=0;editable=1;overflow=hidden;fontFamily=Roboto;fontSource=https%3A%2F%2Ffonts.googleapis.com%2Fcss%3Ffamily%3DRoboto;" parent="38" vertex="1">
                    <mxGeometry width="30" height="30" as="geometry">
                        <mxRectangle width="30" height="30" as="alternateBounds"/>
                    </mxGeometry>
                </mxCell>
                <mxCell id="40" value="created_at" style="shape=partialRectangle;connectable=0;fillColor=none;top=0;left=0;bottom=0;right=0;align=left;spacingLeft=6;overflow=hidden;fontFamily=Roboto;fontSource=https%3A%2F%2Ffonts.googleapis.com%2Fcss%3Ffamily%3DRoboto;" parent="38" vertex="1">
                    <mxGeometry x="30" width="130" height="30" as="geometry">
                        <mxRectangle width="130" height="30" as="alternateBounds"/>
                    </mxGeometry>
                </mxCell>
                <mxCell id="41" value="" style="shape=tableRow;horizontal=0;startSize=0;swimlaneHead=0;swimlaneBody=0;fillColor=none;collapsible=0;dropTarget=0;points=[[0,0.5],[1,0.5]];portConstraint=eastwest;top=0;left=0;right=0;bottom=0;fontFamily=Roboto;fontSource=https%3A%2F%2Ffonts.googleapis.com%2Fcss%3Ffamily%3DRoboto;" parent="28" vertex="1">
                    <mxGeometry y="180" width="160" height="30" as="geometry"/>
                </mxCell>
                <mxCell id="42" value="" style="shape=partialRectangle;connectable=0;fillColor=none;top=0;left=0;bottom=0;right=0;editable=1;overflow=hidden;fontFamily=Roboto;fontSource=https%3A%2F%2Ffonts.googleapis.com%2Fcss%3Ffamily%3DRoboto;" parent="41" vertex="1">
                    <mxGeometry width="30" height="30" as="geometry">
                        <mxRectangle width="30" height="30" as="alternateBounds"/>
                    </mxGeometry>
                </mxCell>
                <mxCell id="43" value="updated_at" style="shape=partialRectangle;connectable=0;fillColor=none;top=0;left=0;bottom=0;right=0;align=left;spacingLeft=6;overflow=hidden;fontFamily=Roboto;fontSource=https%3A%2F%2Ffonts.googleapis.com%2Fcss%3Ffamily%3DRoboto;" parent="41" vertex="1">
                    <mxGeometry x="30" width="130" height="30" as="geometry">
                        <mxRectangle width="130" height="30" as="alternateBounds"/>
                    </mxGeometry>
                </mxCell>
                <mxCell id="50" value="groups" style="shape=table;startSize=30;container=1;collapsible=1;childLayout=tableLayout;fixedRows=1;rowLines=0;fontStyle=1;align=center;resizeLast=1;sketch=1;curveFitting=1;jiggle=2;rounded=1;fontFamily=Roboto;fontSource=https%3A%2F%2Ffonts.googleapis.com%2Fcss%3Ffamily%3DRoboto;" parent="1" vertex="1">
                    <mxGeometry x="320" y="440" width="160" height="210" as="geometry"/>
                </mxCell>
                <mxCell id="51" value="" style="shape=tableRow;horizontal=0;startSize=0;swimlaneHead=0;swimlaneBody=0;fillColor=none;collapsible=0;dropTarget=0;points=[[0,0.5],[1,0.5]];portConstraint=eastwest;top=0;left=0;right=0;bottom=1;fontFamily=Roboto;fontSource=https%3A%2F%2Ffonts.googleapis.com%2Fcss%3Ffamily%3DRoboto;" parent="50" vertex="1">
                    <mxGeometry y="30" width="160" height="30" as="geometry"/>
                </mxCell>
                <mxCell id="52" value="PK" style="shape=partialRectangle;connectable=0;fillColor=none;top=0;left=0;bottom=0;right=0;fontStyle=1;overflow=hidden;fontFamily=Roboto;fontSource=https%3A%2F%2Ffonts.googleapis.com%2Fcss%3Ffamily%3DRoboto;" parent="51" vertex="1">
                    <mxGeometry width="30" height="30" as="geometry">
                        <mxRectangle width="30" height="30" as="alternateBounds"/>
                    </mxGeometry>
                </mxCell>
                <mxCell id="53" value="id" style="shape=partialRectangle;connectable=0;fillColor=none;top=0;left=0;bottom=0;right=0;align=left;spacingLeft=6;fontStyle=5;overflow=hidden;fontFamily=Roboto;fontSource=https%3A%2F%2Ffonts.googleapis.com%2Fcss%3Ffamily%3DRoboto;" parent="51" vertex="1">
                    <mxGeometry x="30" width="130" height="30" as="geometry">
                        <mxRectangle width="130" height="30" as="alternateBounds"/>
                    </mxGeometry>
                </mxCell>
                <mxCell id="54" value="" style="shape=tableRow;horizontal=0;startSize=0;swimlaneHead=0;swimlaneBody=0;fillColor=none;collapsible=0;dropTarget=0;points=[[0,0.5],[1,0.5]];portConstraint=eastwest;top=0;left=0;right=0;bottom=0;fontFamily=Roboto;fontSource=https%3A%2F%2Ffonts.googleapis.com%2Fcss%3Ffamily%3DRoboto;" parent="50" vertex="1">
                    <mxGeometry y="60" width="160" height="30" as="geometry"/>
                </mxCell>
                <mxCell id="55" value="UN" style="shape=partialRectangle;connectable=0;fillColor=none;top=0;left=0;bottom=0;right=0;editable=1;overflow=hidden;fontFamily=Roboto;fontSource=https%3A%2F%2Ffonts.googleapis.com%2Fcss%3Ffamily%3DRoboto;" parent="54" vertex="1">
                    <mxGeometry width="30" height="30" as="geometry">
                        <mxRectangle width="30" height="30" as="alternateBounds"/>
                    </mxGeometry>
                </mxCell>
                <mxCell id="56" value="name" style="shape=partialRectangle;connectable=0;fillColor=none;top=0;left=0;bottom=0;right=0;align=left;spacingLeft=6;overflow=hidden;fontFamily=Roboto;fontSource=https%3A%2F%2Ffonts.googleapis.com%2Fcss%3Ffamily%3DRoboto;" parent="54" vertex="1">
                    <mxGeometry x="30" width="130" height="30" as="geometry">
                        <mxRectangle width="130" height="30" as="alternateBounds"/>
                    </mxGeometry>
                </mxCell>
                <mxCell id="63" value="" style="shape=tableRow;horizontal=0;startSize=0;swimlaneHead=0;swimlaneBody=0;fillColor=none;collapsible=0;dropTarget=0;points=[[0,0.5],[1,0.5]];portConstraint=eastwest;top=0;left=0;right=0;bottom=0;fontFamily=Roboto;fontSource=https%3A%2F%2Ffonts.googleapis.com%2Fcss%3Ffamily%3DRoboto;" parent="50" vertex="1">
                    <mxGeometry y="90" width="160" height="30" as="geometry"/>
                </mxCell>
                <mxCell id="64" value="" style="shape=partialRectangle;connectable=0;fillColor=none;top=0;left=0;bottom=0;right=0;editable=1;overflow=hidden;fontFamily=Roboto;fontSource=https%3A%2F%2Ffonts.googleapis.com%2Fcss%3Ffamily%3DRoboto;" parent="63" vertex="1">
                    <mxGeometry width="30" height="30" as="geometry">
                        <mxRectangle width="30" height="30" as="alternateBounds"/>
                    </mxGeometry>
                </mxCell>
                <mxCell id="65" value="description" style="shape=partialRectangle;connectable=0;fillColor=none;top=0;left=0;bottom=0;right=0;align=left;spacingLeft=6;overflow=hidden;fontFamily=Roboto;fontSource=https%3A%2F%2Ffonts.googleapis.com%2Fcss%3Ffamily%3DRoboto;" parent="63" vertex="1">
                    <mxGeometry x="30" width="130" height="30" as="geometry">
                        <mxRectangle width="130" height="30" as="alternateBounds"/>
                    </mxGeometry>
                </mxCell>
                <mxCell id="66" value="" style="shape=tableRow;horizontal=0;startSize=0;swimlaneHead=0;swimlaneBody=0;fillColor=none;collapsible=0;dropTarget=0;points=[[0,0.5],[1,0.5]];portConstraint=eastwest;top=0;left=0;right=0;bottom=0;fontFamily=Roboto;fontSource=https%3A%2F%2Ffonts.googleapis.com%2Fcss%3Ffamily%3DRoboto;" parent="50" vertex="1">
                    <mxGeometry y="120" width="160" height="30" as="geometry"/>
                </mxCell>
                <mxCell id="67" value="" style="shape=partialRectangle;connectable=0;fillColor=none;top=0;left=0;bottom=0;right=0;editable=1;overflow=hidden;fontFamily=Roboto;fontSource=https%3A%2F%2Ffonts.googleapis.com%2Fcss%3Ffamily%3DRoboto;" parent="66" vertex="1">
                    <mxGeometry width="30" height="30" as="geometry">
                        <mxRectangle width="30" height="30" as="alternateBounds"/>
                    </mxGeometry>
                </mxCell>
                <mxCell id="68" value="created_at" style="shape=partialRectangle;connectable=0;fillColor=none;top=0;left=0;bottom=0;right=0;align=left;spacingLeft=6;overflow=hidden;fontFamily=Roboto;fontSource=https%3A%2F%2Ffonts.googleapis.com%2Fcss%3Ffamily%3DRoboto;" parent="66" vertex="1">
                    <mxGeometry x="30" width="130" height="30" as="geometry">
                        <mxRectangle width="130" height="30" as="alternateBounds"/>
                    </mxGeometry>
                </mxCell>
                <mxCell id="70" value="" style="shape=tableRow;horizontal=0;startSize=0;swimlaneHead=0;swimlaneBody=0;fillColor=none;collapsible=0;dropTarget=0;points=[[0,0.5],[1,0.5]];portConstraint=eastwest;top=0;left=0;right=0;bottom=0;fontFamily=Roboto;fontSource=https%3A%2F%2Ffonts.googleapis.com%2Fcss%3Ffamily%3DRoboto;" parent="50" vertex="1">
                    <mxGeometry y="150" width="160" height="30" as="geometry"/>
                </mxCell>
                <mxCell id="71" value="" style="shape=partialRectangle;connectable=0;fillColor=none;top=0;left=0;bottom=0;right=0;editable=1;overflow=hidden;fontFamily=Roboto;fontSource=https%3A%2F%2Ffonts.googleapis.com%2Fcss%3Ffamily%3DRoboto;" parent="70" vertex="1">
                    <mxGeometry width="30" height="30" as="geometry">
                        <mxRectangle width="30" height="30" as="alternateBounds"/>
                    </mxGeometry>
                </mxCell>
                <mxCell id="72" value="updated_at" style="shape=partialRectangle;connectable=0;fillColor=none;top=0;left=0;bottom=0;right=0;align=left;spacingLeft=6;overflow=hidden;fontFamily=Roboto;fontSource=https%3A%2F%2Ffonts.googleapis.com%2Fcss%3Ffamily%3DRoboto;" parent="70" vertex="1">
                    <mxGeometry x="30" width="130" height="30" as="geometry">
                        <mxRectangle width="130" height="30" as="alternateBounds"/>
                    </mxGeometry>
                </mxCell>
                <mxCell id="73" value="" style="shape=tableRow;horizontal=0;startSize=0;swimlaneHead=0;swimlaneBody=0;fillColor=none;collapsible=0;dropTarget=0;points=[[0,0.5],[1,0.5]];portConstraint=eastwest;top=0;left=0;right=0;bottom=0;fontFamily=Roboto;fontSource=https%3A%2F%2Ffonts.googleapis.com%2Fcss%3Ffamily%3DRoboto;" parent="50" vertex="1">
                    <mxGeometry y="180" width="160" height="30" as="geometry"/>
                </mxCell>
                <mxCell id="74" value="" style="shape=partialRectangle;connectable=0;fillColor=none;top=0;left=0;bottom=0;right=0;editable=1;overflow=hidden;fontFamily=Roboto;fontSource=https%3A%2F%2Ffonts.googleapis.com%2Fcss%3Ffamily%3DRoboto;" parent="73" vertex="1">
                    <mxGeometry width="30" height="30" as="geometry">
                        <mxRectangle width="30" height="30" as="alternateBounds"/>
                    </mxGeometry>
                </mxCell>
                <mxCell id="75" value="deleted_at" style="shape=partialRectangle;connectable=0;fillColor=none;top=0;left=0;bottom=0;right=0;align=left;spacingLeft=6;overflow=hidden;fontFamily=Roboto;fontSource=https%3A%2F%2Ffonts.googleapis.com%2Fcss%3Ffamily%3DRoboto;" parent="73" vertex="1">
                    <mxGeometry x="30" width="130" height="30" as="geometry">
                        <mxRectangle width="130" height="30" as="alternateBounds"/>
                    </mxGeometry>
                </mxCell>
                <mxCell id="76" value="groups_on_permissions" style="shape=table;startSize=30;container=1;collapsible=1;childLayout=tableLayout;fixedRows=1;rowLines=0;fontStyle=1;align=center;resizeLast=1;sketch=1;curveFitting=1;jiggle=2;rounded=1;fontFamily=Roboto;fontSource=https%3A%2F%2Ffonts.googleapis.com%2Fcss%3Ffamily%3DRoboto;" parent="1" vertex="1">
                    <mxGeometry x="560" y="560" width="160" height="120" as="geometry"/>
                </mxCell>
                <mxCell id="77" value="" style="shape=tableRow;horizontal=0;startSize=0;swimlaneHead=0;swimlaneBody=0;fillColor=none;collapsible=0;dropTarget=0;points=[[0,0.5],[1,0.5]];portConstraint=eastwest;top=0;left=0;right=0;bottom=0;fontFamily=Roboto;fontSource=https%3A%2F%2Ffonts.googleapis.com%2Fcss%3Ffamily%3DRoboto;" parent="76" vertex="1">
                    <mxGeometry y="30" width="160" height="30" as="geometry"/>
                </mxCell>
                <mxCell id="78" value="PK,FK1" style="shape=partialRectangle;connectable=0;fillColor=none;top=0;left=0;bottom=0;right=0;fontStyle=1;overflow=hidden;fontFamily=Roboto;fontSource=https%3A%2F%2Ffonts.googleapis.com%2Fcss%3Ffamily%3DRoboto;" parent="77" vertex="1">
                    <mxGeometry width="60" height="30" as="geometry">
                        <mxRectangle width="60" height="30" as="alternateBounds"/>
                    </mxGeometry>
                </mxCell>
                <mxCell id="79" value="permission_id" style="shape=partialRectangle;connectable=0;fillColor=none;top=0;left=0;bottom=0;right=0;align=left;spacingLeft=6;fontStyle=5;overflow=hidden;fontFamily=Roboto;fontSource=https%3A%2F%2Ffonts.googleapis.com%2Fcss%3Ffamily%3DRoboto;" parent="77" vertex="1">
                    <mxGeometry x="60" width="100" height="30" as="geometry">
                        <mxRectangle width="100" height="30" as="alternateBounds"/>
                    </mxGeometry>
                </mxCell>
                <mxCell id="80" value="" style="shape=tableRow;horizontal=0;startSize=0;swimlaneHead=0;swimlaneBody=0;fillColor=none;collapsible=0;dropTarget=0;points=[[0,0.5],[1,0.5]];portConstraint=eastwest;top=0;left=0;right=0;bottom=1;fontFamily=Roboto;fontSource=https%3A%2F%2Ffonts.googleapis.com%2Fcss%3Ffamily%3DRoboto;" parent="76" vertex="1">
                    <mxGeometry y="60" width="160" height="30" as="geometry"/>
                </mxCell>
                <mxCell id="81" value="PK,FK2" style="shape=partialRectangle;connectable=0;fillColor=none;top=0;left=0;bottom=0;right=0;fontStyle=1;overflow=hidden;fontFamily=Roboto;fontSource=https%3A%2F%2Ffonts.googleapis.com%2Fcss%3Ffamily%3DRoboto;" parent="80" vertex="1">
                    <mxGeometry width="60" height="30" as="geometry">
                        <mxRectangle width="60" height="30" as="alternateBounds"/>
                    </mxGeometry>
                </mxCell>
                <mxCell id="82" value="group_id" style="shape=partialRectangle;connectable=0;fillColor=none;top=0;left=0;bottom=0;right=0;align=left;spacingLeft=6;fontStyle=5;overflow=hidden;fontFamily=Roboto;fontSource=https%3A%2F%2Ffonts.googleapis.com%2Fcss%3Ffamily%3DRoboto;" parent="80" vertex="1">
                    <mxGeometry x="60" width="100" height="30" as="geometry">
                        <mxRectangle width="100" height="30" as="alternateBounds"/>
                    </mxGeometry>
                </mxCell>
                <mxCell id="83" value="" style="shape=tableRow;horizontal=0;startSize=0;swimlaneHead=0;swimlaneBody=0;fillColor=none;collapsible=0;dropTarget=0;points=[[0,0.5],[1,0.5]];portConstraint=eastwest;top=0;left=0;right=0;bottom=0;fontFamily=Roboto;fontSource=https%3A%2F%2Ffonts.googleapis.com%2Fcss%3Ffamily%3DRoboto;" parent="76" vertex="1">
                    <mxGeometry y="90" width="160" height="30" as="geometry"/>
                </mxCell>
                <mxCell id="84" value="" style="shape=partialRectangle;connectable=0;fillColor=none;top=0;left=0;bottom=0;right=0;editable=1;overflow=hidden;fontFamily=Roboto;fontSource=https%3A%2F%2Ffonts.googleapis.com%2Fcss%3Ffamily%3DRoboto;" parent="83" vertex="1">
                    <mxGeometry width="60" height="30" as="geometry">
                        <mxRectangle width="60" height="30" as="alternateBounds"/>
                    </mxGeometry>
                </mxCell>
                <mxCell id="85" value="created_at" style="shape=partialRectangle;connectable=0;fillColor=none;top=0;left=0;bottom=0;right=0;align=left;spacingLeft=6;overflow=hidden;fontFamily=Roboto;fontSource=https%3A%2F%2Ffonts.googleapis.com%2Fcss%3Ffamily%3DRoboto;" parent="83" vertex="1">
                    <mxGeometry x="60" width="100" height="30" as="geometry">
                        <mxRectangle width="100" height="30" as="alternateBounds"/>
                    </mxGeometry>
                </mxCell>
                <mxCell id="86" value="users_on_permissions" style="shape=table;startSize=30;container=1;collapsible=1;childLayout=tableLayout;fixedRows=1;rowLines=0;fontStyle=1;align=center;resizeLast=1;sketch=1;curveFitting=1;jiggle=2;rounded=1;fontFamily=Roboto;fontSource=https%3A%2F%2Ffonts.googleapis.com%2Fcss%3Ffamily%3DRoboto;" parent="1" vertex="1">
                    <mxGeometry x="800" y="280" width="160" height="120" as="geometry"/>
                </mxCell>
                <mxCell id="87" value="" style="shape=tableRow;horizontal=0;startSize=0;swimlaneHead=0;swimlaneBody=0;fillColor=none;collapsible=0;dropTarget=0;points=[[0,0.5],[1,0.5]];portConstraint=eastwest;top=0;left=0;right=0;bottom=0;fontFamily=Roboto;fontSource=https%3A%2F%2Ffonts.googleapis.com%2Fcss%3Ffamily%3DRoboto;" parent="86" vertex="1">
                    <mxGeometry y="30" width="160" height="30" as="geometry"/>
                </mxCell>
                <mxCell id="88" value="PK,FK1" style="shape=partialRectangle;connectable=0;fillColor=none;top=0;left=0;bottom=0;right=0;fontStyle=1;overflow=hidden;fontFamily=Roboto;fontSource=https%3A%2F%2Ffonts.googleapis.com%2Fcss%3Ffamily%3DRoboto;" parent="87" vertex="1">
                    <mxGeometry width="60" height="30" as="geometry">
                        <mxRectangle width="60" height="30" as="alternateBounds"/>
                    </mxGeometry>
                </mxCell>
                <mxCell id="89" value="user_id" style="shape=partialRectangle;connectable=0;fillColor=none;top=0;left=0;bottom=0;right=0;align=left;spacingLeft=6;fontStyle=5;overflow=hidden;fontFamily=Roboto;fontSource=https%3A%2F%2Ffonts.googleapis.com%2Fcss%3Ffamily%3DRoboto;" parent="87" vertex="1">
                    <mxGeometry x="60" width="100" height="30" as="geometry">
                        <mxRectangle width="100" height="30" as="alternateBounds"/>
                    </mxGeometry>
                </mxCell>
                <mxCell id="90" value="" style="shape=tableRow;horizontal=0;startSize=0;swimlaneHead=0;swimlaneBody=0;fillColor=none;collapsible=0;dropTarget=0;points=[[0,0.5],[1,0.5]];portConstraint=eastwest;top=0;left=0;right=0;bottom=1;fontFamily=Roboto;fontSource=https%3A%2F%2Ffonts.googleapis.com%2Fcss%3Ffamily%3DRoboto;" parent="86" vertex="1">
                    <mxGeometry y="60" width="160" height="30" as="geometry"/>
                </mxCell>
                <mxCell id="91" value="PK,FK2" style="shape=partialRectangle;connectable=0;fillColor=none;top=0;left=0;bottom=0;right=0;fontStyle=1;overflow=hidden;fontFamily=Roboto;fontSource=https%3A%2F%2Ffonts.googleapis.com%2Fcss%3Ffamily%3DRoboto;" parent="90" vertex="1">
                    <mxGeometry width="60" height="30" as="geometry">
                        <mxRectangle width="60" height="30" as="alternateBounds"/>
                    </mxGeometry>
                </mxCell>
                <mxCell id="92" value="permission_id" style="shape=partialRectangle;connectable=0;fillColor=none;top=0;left=0;bottom=0;right=0;align=left;spacingLeft=6;fontStyle=5;overflow=hidden;fontFamily=Roboto;fontSource=https%3A%2F%2Ffonts.googleapis.com%2Fcss%3Ffamily%3DRoboto;" parent="90" vertex="1">
                    <mxGeometry x="60" width="100" height="30" as="geometry">
                        <mxRectangle width="100" height="30" as="alternateBounds"/>
                    </mxGeometry>
                </mxCell>
                <mxCell id="93" value="" style="shape=tableRow;horizontal=0;startSize=0;swimlaneHead=0;swimlaneBody=0;fillColor=none;collapsible=0;dropTarget=0;points=[[0,0.5],[1,0.5]];portConstraint=eastwest;top=0;left=0;right=0;bottom=0;fontFamily=Roboto;fontSource=https%3A%2F%2Ffonts.googleapis.com%2Fcss%3Ffamily%3DRoboto;" parent="86" vertex="1">
                    <mxGeometry y="90" width="160" height="30" as="geometry"/>
                </mxCell>
                <mxCell id="94" value="" style="shape=partialRectangle;connectable=0;fillColor=none;top=0;left=0;bottom=0;right=0;editable=1;overflow=hidden;fontFamily=Roboto;fontSource=https%3A%2F%2Ffonts.googleapis.com%2Fcss%3Ffamily%3DRoboto;" parent="93" vertex="1">
                    <mxGeometry width="60" height="30" as="geometry">
                        <mxRectangle width="60" height="30" as="alternateBounds"/>
                    </mxGeometry>
                </mxCell>
                <mxCell id="95" value="created_at" style="shape=partialRectangle;connectable=0;fillColor=none;top=0;left=0;bottom=0;right=0;align=left;spacingLeft=6;overflow=hidden;fontFamily=Roboto;fontSource=https%3A%2F%2Ffonts.googleapis.com%2Fcss%3Ffamily%3DRoboto;" parent="93" vertex="1">
                    <mxGeometry x="60" width="100" height="30" as="geometry">
                        <mxRectangle width="100" height="30" as="alternateBounds"/>
                    </mxGeometry>
                </mxCell>
                <mxCell id="96" value="sessions" style="shape=table;startSize=30;container=1;collapsible=1;childLayout=tableLayout;fixedRows=1;rowLines=0;fontStyle=1;align=center;resizeLast=1;sketch=1;curveFitting=1;jiggle=2;rounded=1;fontFamily=Roboto;fontSource=https%3A%2F%2Ffonts.googleapis.com%2Fcss%3Ffamily%3DRoboto;" parent="1" vertex="1">
                    <mxGeometry x="1040" y="280" width="160" height="210" as="geometry"/>
                </mxCell>
                <mxCell id="97" value="" style="shape=tableRow;horizontal=0;startSize=0;swimlaneHead=0;swimlaneBody=0;fillColor=none;collapsible=0;dropTarget=0;points=[[0,0.5],[1,0.5]];portConstraint=eastwest;top=0;left=0;right=0;bottom=1;fontFamily=Roboto;fontSource=https%3A%2F%2Ffonts.googleapis.com%2Fcss%3Ffamily%3DRoboto;" parent="96" vertex="1">
                    <mxGeometry y="30" width="160" height="30" as="geometry"/>
                </mxCell>
                <mxCell id="98" value="PK" style="shape=partialRectangle;connectable=0;fillColor=none;top=0;left=0;bottom=0;right=0;fontStyle=1;overflow=hidden;fontFamily=Roboto;fontSource=https%3A%2F%2Ffonts.googleapis.com%2Fcss%3Ffamily%3DRoboto;" parent="97" vertex="1">
                    <mxGeometry width="30" height="30" as="geometry">
                        <mxRectangle width="30" height="30" as="alternateBounds"/>
                    </mxGeometry>
                </mxCell>
                <mxCell id="99" value="id" style="shape=partialRectangle;connectable=0;fillColor=none;top=0;left=0;bottom=0;right=0;align=left;spacingLeft=6;fontStyle=5;overflow=hidden;fontFamily=Roboto;fontSource=https%3A%2F%2Ffonts.googleapis.com%2Fcss%3Ffamily%3DRoboto;" parent="97" vertex="1">
                    <mxGeometry x="30" width="130" height="30" as="geometry">
                        <mxRectangle width="130" height="30" as="alternateBounds"/>
                    </mxGeometry>
                </mxCell>
                <mxCell id="100" value="" style="shape=tableRow;horizontal=0;startSize=0;swimlaneHead=0;swimlaneBody=0;fillColor=none;collapsible=0;dropTarget=0;points=[[0,0.5],[1,0.5]];portConstraint=eastwest;top=0;left=0;right=0;bottom=0;fontFamily=Roboto;fontSource=https%3A%2F%2Ffonts.googleapis.com%2Fcss%3Ffamily%3DRoboto;" parent="96" vertex="1">
                    <mxGeometry y="60" width="160" height="30" as="geometry"/>
                </mxCell>
                <mxCell id="101" value="FK" style="shape=partialRectangle;connectable=0;fillColor=none;top=0;left=0;bottom=0;right=0;editable=1;overflow=hidden;fontFamily=Roboto;fontSource=https%3A%2F%2Ffonts.googleapis.com%2Fcss%3Ffamily%3DRoboto;" parent="100" vertex="1">
                    <mxGeometry width="30" height="30" as="geometry">
                        <mxRectangle width="30" height="30" as="alternateBounds"/>
                    </mxGeometry>
                </mxCell>
                <mxCell id="102" value="user_id" style="shape=partialRectangle;connectable=0;fillColor=none;top=0;left=0;bottom=0;right=0;align=left;spacingLeft=6;overflow=hidden;fontFamily=Roboto;fontSource=https%3A%2F%2Ffonts.googleapis.com%2Fcss%3Ffamily%3DRoboto;" parent="100" vertex="1">
                    <mxGeometry x="30" width="130" height="30" as="geometry">
                        <mxRectangle width="130" height="30" as="alternateBounds"/>
                    </mxGeometry>
                </mxCell>
                <mxCell id="103" value="" style="shape=tableRow;horizontal=0;startSize=0;swimlaneHead=0;swimlaneBody=0;fillColor=none;collapsible=0;dropTarget=0;points=[[0,0.5],[1,0.5]];portConstraint=eastwest;top=0;left=0;right=0;bottom=0;fontFamily=Roboto;fontSource=https%3A%2F%2Ffonts.googleapis.com%2Fcss%3Ffamily%3DRoboto;" parent="96" vertex="1">
                    <mxGeometry y="90" width="160" height="30" as="geometry"/>
                </mxCell>
                <mxCell id="104" value="" style="shape=partialRectangle;connectable=0;fillColor=none;top=0;left=0;bottom=0;right=0;editable=1;overflow=hidden;fontFamily=Roboto;fontSource=https%3A%2F%2Ffonts.googleapis.com%2Fcss%3Ffamily%3DRoboto;" parent="103" vertex="1">
                    <mxGeometry width="30" height="30" as="geometry">
                        <mxRectangle width="30" height="30" as="alternateBounds"/>
                    </mxGeometry>
                </mxCell>
                <mxCell id="105" value="user_agent" style="shape=partialRectangle;connectable=0;fillColor=none;top=0;left=0;bottom=0;right=0;align=left;spacingLeft=6;overflow=hidden;fontFamily=Roboto;fontSource=https%3A%2F%2Ffonts.googleapis.com%2Fcss%3Ffamily%3DRoboto;" parent="103" vertex="1">
                    <mxGeometry x="30" width="130" height="30" as="geometry">
                        <mxRectangle width="130" height="30" as="alternateBounds"/>
                    </mxGeometry>
                </mxCell>
                <mxCell id="106" value="" style="shape=tableRow;horizontal=0;startSize=0;swimlaneHead=0;swimlaneBody=0;fillColor=none;collapsible=0;dropTarget=0;points=[[0,0.5],[1,0.5]];portConstraint=eastwest;top=0;left=0;right=0;bottom=0;fontFamily=Roboto;fontSource=https%3A%2F%2Ffonts.googleapis.com%2Fcss%3Ffamily%3DRoboto;" parent="96" vertex="1">
                    <mxGeometry y="120" width="160" height="30" as="geometry"/>
                </mxCell>
                <mxCell id="107" value="" style="shape=partialRectangle;connectable=0;fillColor=none;top=0;left=0;bottom=0;right=0;editable=1;overflow=hidden;fontFamily=Roboto;fontSource=https%3A%2F%2Ffonts.googleapis.com%2Fcss%3Ffamily%3DRoboto;" parent="106" vertex="1">
                    <mxGeometry width="30" height="30" as="geometry">
                        <mxRectangle width="30" height="30" as="alternateBounds"/>
                    </mxGeometry>
                </mxCell>
                <mxCell id="108" value="ip" style="shape=partialRectangle;connectable=0;fillColor=none;top=0;left=0;bottom=0;right=0;align=left;spacingLeft=6;overflow=hidden;fontFamily=Roboto;fontSource=https%3A%2F%2Ffonts.googleapis.com%2Fcss%3Ffamily%3DRoboto;" parent="106" vertex="1">
                    <mxGeometry x="30" width="130" height="30" as="geometry">
                        <mxRectangle width="130" height="30" as="alternateBounds"/>
                    </mxGeometry>
                </mxCell>
                <mxCell id="109" value="" style="shape=tableRow;horizontal=0;startSize=0;swimlaneHead=0;swimlaneBody=0;fillColor=none;collapsible=0;dropTarget=0;points=[[0,0.5],[1,0.5]];portConstraint=eastwest;top=0;left=0;right=0;bottom=0;fontFamily=Roboto;fontSource=https%3A%2F%2Ffonts.googleapis.com%2Fcss%3Ffamily%3DRoboto;" parent="96" vertex="1">
                    <mxGeometry y="150" width="160" height="30" as="geometry"/>
                </mxCell>
                <mxCell id="110" value="" style="shape=partialRectangle;connectable=0;fillColor=none;top=0;left=0;bottom=0;right=0;editable=1;overflow=hidden;fontFamily=Roboto;fontSource=https%3A%2F%2Ffonts.googleapis.com%2Fcss%3Ffamily%3DRoboto;" parent="109" vertex="1">
                    <mxGeometry width="30" height="30" as="geometry">
                        <mxRectangle width="30" height="30" as="alternateBounds"/>
                    </mxGeometry>
                </mxCell>
                <mxCell id="111" value="created_at" style="shape=partialRectangle;connectable=0;fillColor=none;top=0;left=0;bottom=0;right=0;align=left;spacingLeft=6;overflow=hidden;fontFamily=Roboto;fontSource=https%3A%2F%2Ffonts.googleapis.com%2Fcss%3Ffamily%3DRoboto;" parent="109" vertex="1">
                    <mxGeometry x="30" width="130" height="30" as="geometry">
                        <mxRectangle width="130" height="30" as="alternateBounds"/>
                    </mxGeometry>
                </mxCell>
                <mxCell id="112" value="" style="shape=tableRow;horizontal=0;startSize=0;swimlaneHead=0;swimlaneBody=0;fillColor=none;collapsible=0;dropTarget=0;points=[[0,0.5],[1,0.5]];portConstraint=eastwest;top=0;left=0;right=0;bottom=0;fontFamily=Roboto;fontSource=https%3A%2F%2Ffonts.googleapis.com%2Fcss%3Ffamily%3DRoboto;" parent="96" vertex="1">
                    <mxGeometry y="180" width="160" height="30" as="geometry"/>
                </mxCell>
                <mxCell id="113" value="" style="shape=partialRectangle;connectable=0;fillColor=none;top=0;left=0;bottom=0;right=0;editable=1;overflow=hidden;fontFamily=Roboto;fontSource=https%3A%2F%2Ffonts.googleapis.com%2Fcss%3Ffamily%3DRoboto;" parent="112" vertex="1">
                    <mxGeometry width="30" height="30" as="geometry">
                        <mxRectangle width="30" height="30" as="alternateBounds"/>
                    </mxGeometry>
                </mxCell>
                <mxCell id="114" value="deleted_at" style="shape=partialRectangle;connectable=0;fillColor=none;top=0;left=0;bottom=0;right=0;align=left;spacingLeft=6;overflow=hidden;fontFamily=Roboto;fontSource=https%3A%2F%2Ffonts.googleapis.com%2Fcss%3Ffamily%3DRoboto;" parent="112" vertex="1">
                    <mxGeometry x="30" width="130" height="30" as="geometry">
                        <mxRectangle width="130" height="30" as="alternateBounds"/>
                    </mxGeometry>
                </mxCell>
                <mxCell id="115" value="reset_passwords" style="shape=table;startSize=30;container=1;collapsible=1;childLayout=tableLayout;fixedRows=1;rowLines=0;fontStyle=1;align=center;resizeLast=1;sketch=1;curveFitting=1;jiggle=2;rounded=1;fontFamily=Roboto;fontSource=https%3A%2F%2Ffonts.googleapis.com%2Fcss%3Ffamily%3DRoboto;" parent="1" vertex="1">
                    <mxGeometry x="800" y="440" width="160" height="160" as="geometry"/>
                </mxCell>
                <mxCell id="116" value="" style="shape=tableRow;horizontal=0;startSize=0;swimlaneHead=0;swimlaneBody=0;fillColor=none;collapsible=0;dropTarget=0;points=[[0,0.5],[1,0.5]];portConstraint=eastwest;top=0;left=0;right=0;bottom=1;fontFamily=Roboto;fontSource=https%3A%2F%2Ffonts.googleapis.com%2Fcss%3Ffamily%3DRoboto;" parent="115" vertex="1">
                    <mxGeometry y="30" width="160" height="30" as="geometry"/>
                </mxCell>
                <mxCell id="117" value="PK" style="shape=partialRectangle;connectable=0;fillColor=none;top=0;left=0;bottom=0;right=0;fontStyle=1;overflow=hidden;fontFamily=Roboto;fontSource=https%3A%2F%2Ffonts.googleapis.com%2Fcss%3Ffamily%3DRoboto;" parent="116" vertex="1">
                    <mxGeometry width="30" height="30" as="geometry">
                        <mxRectangle width="30" height="30" as="alternateBounds"/>
                    </mxGeometry>
                </mxCell>
                <mxCell id="118" value="id" style="shape=partialRectangle;connectable=0;fillColor=none;top=0;left=0;bottom=0;right=0;align=left;spacingLeft=6;fontStyle=5;overflow=hidden;fontFamily=Roboto;fontSource=https%3A%2F%2Ffonts.googleapis.com%2Fcss%3Ffamily%3DRoboto;" parent="116" vertex="1">
                    <mxGeometry x="30" width="130" height="30" as="geometry">
                        <mxRectangle width="130" height="30" as="alternateBounds"/>
                    </mxGeometry>
                </mxCell>
                <mxCell id="119" value="" style="shape=tableRow;horizontal=0;startSize=0;swimlaneHead=0;swimlaneBody=0;fillColor=none;collapsible=0;dropTarget=0;points=[[0,0.5],[1,0.5]];portConstraint=eastwest;top=0;left=0;right=0;bottom=0;fontFamily=Roboto;fontSource=https%3A%2F%2Ffonts.googleapis.com%2Fcss%3Ffamily%3DRoboto;" parent="115" vertex="1">
                    <mxGeometry y="60" width="160" height="30" as="geometry"/>
                </mxCell>
                <mxCell id="120" value="FK" style="shape=partialRectangle;connectable=0;fillColor=none;top=0;left=0;bottom=0;right=0;editable=1;overflow=hidden;fontFamily=Roboto;fontSource=https%3A%2F%2Ffonts.googleapis.com%2Fcss%3Ffamily%3DRoboto;" parent="119" vertex="1">
                    <mxGeometry width="30" height="30" as="geometry">
                        <mxRectangle width="30" height="30" as="alternateBounds"/>
                    </mxGeometry>
                </mxCell>
                <mxCell id="121" value="user_id" style="shape=partialRectangle;connectable=0;fillColor=none;top=0;left=0;bottom=0;right=0;align=left;spacingLeft=6;overflow=hidden;fontFamily=Roboto;fontSource=https%3A%2F%2Ffonts.googleapis.com%2Fcss%3Ffamily%3DRoboto;" parent="119" vertex="1">
                    <mxGeometry x="30" width="130" height="30" as="geometry">
                        <mxRectangle width="130" height="30" as="alternateBounds"/>
                    </mxGeometry>
                </mxCell>
                <mxCell id="122" value="" style="shape=tableRow;horizontal=0;startSize=0;swimlaneHead=0;swimlaneBody=0;fillColor=none;collapsible=0;dropTarget=0;points=[[0,0.5],[1,0.5]];portConstraint=eastwest;top=0;left=0;right=0;bottom=0;fontFamily=Roboto;fontSource=https%3A%2F%2Ffonts.googleapis.com%2Fcss%3Ffamily%3DRoboto;" parent="115" vertex="1">
                    <mxGeometry y="90" width="160" height="30" as="geometry"/>
                </mxCell>
                <mxCell id="123" value="" style="shape=partialRectangle;connectable=0;fillColor=none;top=0;left=0;bottom=0;right=0;editable=1;overflow=hidden;fontFamily=Roboto;fontSource=https%3A%2F%2Ffonts.googleapis.com%2Fcss%3Ffamily%3DRoboto;" parent="122" vertex="1">
                    <mxGeometry width="30" height="30" as="geometry">
                        <mxRectangle width="30" height="30" as="alternateBounds"/>
                    </mxGeometry>
                </mxCell>
                <mxCell id="124" value="token" style="shape=partialRectangle;connectable=0;fillColor=none;top=0;left=0;bottom=0;right=0;align=left;spacingLeft=6;overflow=hidden;fontFamily=Roboto;fontSource=https%3A%2F%2Ffonts.googleapis.com%2Fcss%3Ffamily%3DRoboto;" parent="122" vertex="1">
                    <mxGeometry x="30" width="130" height="30" as="geometry">
                        <mxRectangle width="130" height="30" as="alternateBounds"/>
                    </mxGeometry>
                </mxCell>
                <mxCell id="128" value="" style="shape=tableRow;horizontal=0;startSize=0;swimlaneHead=0;swimlaneBody=0;fillColor=none;collapsible=0;dropTarget=0;points=[[0,0.5],[1,0.5]];portConstraint=eastwest;top=0;left=0;right=0;bottom=0;fontFamily=Roboto;fontSource=https%3A%2F%2Ffonts.googleapis.com%2Fcss%3Ffamily%3DRoboto;" parent="115" vertex="1">
                    <mxGeometry y="120" width="160" height="30" as="geometry"/>
                </mxCell>
                <mxCell id="129" value="" style="shape=partialRectangle;connectable=0;fillColor=none;top=0;left=0;bottom=0;right=0;editable=1;overflow=hidden;fontFamily=Roboto;fontSource=https%3A%2F%2Ffonts.googleapis.com%2Fcss%3Ffamily%3DRoboto;" parent="128" vertex="1">
                    <mxGeometry width="30" height="30" as="geometry">
                        <mxRectangle width="30" height="30" as="alternateBounds"/>
                    </mxGeometry>
                </mxCell>
                <mxCell id="130" value="created_at" style="shape=partialRectangle;connectable=0;fillColor=none;top=0;left=0;bottom=0;right=0;align=left;spacingLeft=6;overflow=hidden;fontFamily=Roboto;fontSource=https%3A%2F%2Ffonts.googleapis.com%2Fcss%3Ffamily%3DRoboto;" parent="128" vertex="1">
                    <mxGeometry x="30" width="130" height="30" as="geometry">
                        <mxRectangle width="130" height="30" as="alternateBounds"/>
                    </mxGeometry>
                </mxCell>
                <mxCell id="134" value="users_on_groups" style="shape=table;startSize=30;container=1;collapsible=1;childLayout=tableLayout;fixedRows=1;rowLines=0;fontStyle=1;align=center;resizeLast=1;sketch=1;curveFitting=1;jiggle=2;rounded=1;fontFamily=Roboto;fontSource=https%3A%2F%2Ffonts.googleapis.com%2Fcss%3Ffamily%3DRoboto;" parent="1" vertex="1">
                    <mxGeometry x="80" y="530" width="160" height="120" as="geometry"/>
                </mxCell>
                <mxCell id="135" value="" style="shape=tableRow;horizontal=0;startSize=0;swimlaneHead=0;swimlaneBody=0;fillColor=none;collapsible=0;dropTarget=0;points=[[0,0.5],[1,0.5]];portConstraint=eastwest;top=0;left=0;right=0;bottom=0;fontFamily=Roboto;fontSource=https%3A%2F%2Ffonts.googleapis.com%2Fcss%3Ffamily%3DRoboto;" parent="134" vertex="1">
                    <mxGeometry y="30" width="160" height="30" as="geometry"/>
                </mxCell>
                <mxCell id="136" value="PK,FK1" style="shape=partialRectangle;connectable=0;fillColor=none;top=0;left=0;bottom=0;right=0;fontStyle=1;overflow=hidden;fontFamily=Roboto;fontSource=https%3A%2F%2Ffonts.googleapis.com%2Fcss%3Ffamily%3DRoboto;" parent="135" vertex="1">
                    <mxGeometry width="60" height="30" as="geometry">
                        <mxRectangle width="60" height="30" as="alternateBounds"/>
                    </mxGeometry>
                </mxCell>
                <mxCell id="137" value="user_id" style="shape=partialRectangle;connectable=0;fillColor=none;top=0;left=0;bottom=0;right=0;align=left;spacingLeft=6;fontStyle=5;overflow=hidden;fontFamily=Roboto;fontSource=https%3A%2F%2Ffonts.googleapis.com%2Fcss%3Ffamily%3DRoboto;" parent="135" vertex="1">
                    <mxGeometry x="60" width="100" height="30" as="geometry">
                        <mxRectangle width="100" height="30" as="alternateBounds"/>
                    </mxGeometry>
                </mxCell>
                <mxCell id="138" value="" style="shape=tableRow;horizontal=0;startSize=0;swimlaneHead=0;swimlaneBody=0;fillColor=none;collapsible=0;dropTarget=0;points=[[0,0.5],[1,0.5]];portConstraint=eastwest;top=0;left=0;right=0;bottom=1;fontFamily=Roboto;fontSource=https%3A%2F%2Ffonts.googleapis.com%2Fcss%3Ffamily%3DRoboto;" parent="134" vertex="1">
                    <mxGeometry y="60" width="160" height="30" as="geometry"/>
                </mxCell>
                <mxCell id="139" value="PK,FK2" style="shape=partialRectangle;connectable=0;fillColor=none;top=0;left=0;bottom=0;right=0;fontStyle=1;overflow=hidden;fontFamily=Roboto;fontSource=https%3A%2F%2Ffonts.googleapis.com%2Fcss%3Ffamily%3DRoboto;" parent="138" vertex="1">
                    <mxGeometry width="60" height="30" as="geometry">
                        <mxRectangle width="60" height="30" as="alternateBounds"/>
                    </mxGeometry>
                </mxCell>
                <mxCell id="140" value="group_id" style="shape=partialRectangle;connectable=0;fillColor=none;top=0;left=0;bottom=0;right=0;align=left;spacingLeft=6;fontStyle=5;overflow=hidden;fontFamily=Roboto;fontSource=https%3A%2F%2Ffonts.googleapis.com%2Fcss%3Ffamily%3DRoboto;" parent="138" vertex="1">
                    <mxGeometry x="60" width="100" height="30" as="geometry">
                        <mxRectangle width="100" height="30" as="alternateBounds"/>
                    </mxGeometry>
                </mxCell>
                <mxCell id="141" value="" style="shape=tableRow;horizontal=0;startSize=0;swimlaneHead=0;swimlaneBody=0;fillColor=none;collapsible=0;dropTarget=0;points=[[0,0.5],[1,0.5]];portConstraint=eastwest;top=0;left=0;right=0;bottom=0;fontFamily=Roboto;fontSource=https%3A%2F%2Ffonts.googleapis.com%2Fcss%3Ffamily%3DRoboto;" parent="134" vertex="1">
                    <mxGeometry y="90" width="160" height="30" as="geometry"/>
                </mxCell>
                <mxCell id="142" value="" style="shape=partialRectangle;connectable=0;fillColor=none;top=0;left=0;bottom=0;right=0;editable=1;overflow=hidden;fontFamily=Roboto;fontSource=https%3A%2F%2Ffonts.googleapis.com%2Fcss%3Ffamily%3DRoboto;" parent="141" vertex="1">
                    <mxGeometry width="60" height="30" as="geometry">
                        <mxRectangle width="60" height="30" as="alternateBounds"/>
                    </mxGeometry>
                </mxCell>
                <mxCell id="143" value="created_at" style="shape=partialRectangle;connectable=0;fillColor=none;top=0;left=0;bottom=0;right=0;align=left;spacingLeft=6;overflow=hidden;fontFamily=Roboto;fontSource=https%3A%2F%2Ffonts.googleapis.com%2Fcss%3Ffamily%3DRoboto;" parent="141" vertex="1">
                    <mxGeometry x="60" width="100" height="30" as="geometry">
                        <mxRectangle width="100" height="30" as="alternateBounds"/>
                    </mxGeometry>
                </mxCell>
                <mxCell id="144" value="" style="edgeStyle=entityRelationEdgeStyle;fontSize=12;html=1;endArrow=ERoneToMany;startArrow=ERmandOne;fontFamily=Roboto;fontSource=https%3A%2F%2Ffonts.googleapis.com%2Fcss%3Ffamily%3DRoboto;sketch=1;curveFitting=1;jiggle=2;" parent="1" source="16" target="90" edge="1">
                    <mxGeometry width="100" height="100" relative="1" as="geometry">
                        <mxPoint x="320" y="420" as="sourcePoint"/>
                        <mxPoint x="420" y="320" as="targetPoint"/>
                    </mxGeometry>
                </mxCell>
                <mxCell id="177" value="" style="edgeStyle=entityRelationEdgeStyle;fontSize=12;html=1;endArrow=ERoneToMany;startArrow=ERmandOne;exitX=0;exitY=0.5;exitDx=0;exitDy=0;fontFamily=Roboto;fontSource=https%3A%2F%2Ffonts.googleapis.com%2Fcss%3Ffamily%3DRoboto;sketch=1;curveFitting=1;jiggle=2;" parent="1" source="51" target="138" edge="1">
                    <mxGeometry width="100" height="100" relative="1" as="geometry">
                        <mxPoint x="-20" y="335" as="sourcePoint"/>
                        <mxPoint x="50" y="415" as="targetPoint"/>
                    </mxGeometry>
                </mxCell>
                <mxCell id="180" value="" style="edgeStyle=entityRelationEdgeStyle;fontSize=12;html=1;endArrow=ERoneToMany;startArrow=ERmandOne;entryX=0;entryY=0.5;entryDx=0;entryDy=0;fontFamily=Roboto;fontSource=https%3A%2F%2Ffonts.googleapis.com%2Fcss%3Ffamily%3DRoboto;sketch=1;curveFitting=1;jiggle=2;" parent="1" source="51" target="80" edge="1">
                    <mxGeometry width="100" height="100" relative="1" as="geometry">
                        <mxPoint x="290" y="375" as="sourcePoint"/>
                        <mxPoint x="710" y="410" as="targetPoint"/>
                    </mxGeometry>
                </mxCell>
                <mxCell id="181" value="" style="edgeStyle=entityRelationEdgeStyle;fontSize=12;html=1;endArrow=ERoneToMany;startArrow=ERmandOne;entryX=1;entryY=0.5;entryDx=0;entryDy=0;fontFamily=Roboto;fontSource=https%3A%2F%2Ffonts.googleapis.com%2Fcss%3Ffamily%3DRoboto;sketch=1;curveFitting=1;jiggle=2;" parent="1" source="16" target="77" edge="1">
                    <mxGeometry width="100" height="100" relative="1" as="geometry">
                        <mxPoint x="470" y="375" as="sourcePoint"/>
                        <mxPoint x="580" y="275" as="targetPoint"/>
                    </mxGeometry>
                </mxCell>
                <mxCell id="182" value="" style="edgeStyle=entityRelationEdgeStyle;fontSize=12;html=1;endArrow=ERoneToMany;startArrow=ERmandOne;fontFamily=Roboto;fontSource=https%3A%2F%2Ffonts.googleapis.com%2Fcss%3Ffamily%3DRoboto;sketch=1;curveFitting=1;jiggle=2;" parent="1" source="29" target="3" edge="1">
                    <mxGeometry width="100" height="100" relative="1" as="geometry">
                        <mxPoint x="240" y="650" as="sourcePoint"/>
                        <mxPoint x="230" y="445" as="targetPoint"/>
                    </mxGeometry>
                </mxCell>
                <mxCell id="183" value="" style="edgeStyle=entityRelationEdgeStyle;fontSize=12;html=1;endArrow=ERoneToMany;startArrow=ERmandOne;entryX=1;entryY=0.5;entryDx=0;entryDy=0;fontFamily=Roboto;fontSource=https%3A%2F%2Ffonts.googleapis.com%2Fcss%3Ffamily%3DRoboto;sketch=1;curveFitting=1;jiggle=2;" parent="1" source="16" target="6" edge="1">
                    <mxGeometry width="100" height="100" relative="1" as="geometry">
                        <mxPoint x="470" y="375" as="sourcePoint"/>
                        <mxPoint x="580" y="275" as="targetPoint"/>
                    </mxGeometry>
                </mxCell>
                <mxCell id="199" value="&lt;b&gt;Postgresql&lt;/b&gt;" style="text;html=1;strokeColor=none;fillColor=none;align=center;verticalAlign=middle;whiteSpace=wrap;rounded=0;fontSize=31;fontColor=#120d0d;fontFamily=Roboto;fontSource=https%3A%2F%2Ffonts.googleapis.com%2Fcss%3Ffamily%3DRoboto;" parent="1" vertex="1">
                    <mxGeometry x="1054" y="590" width="160" height="30" as="geometry"/>
                </mxCell>
                <mxCell id="203" value="" style="shape=image;verticalLabelPosition=bottom;labelBackgroundColor=default;verticalAlign=top;aspect=fixed;imageAspect=0;image=data:image/svg+xml,PHN2ZyB4bWxuczp4bGluaz0iaHR0cDovL3d3dy53My5vcmcvMTk5OS94bGluayIgeG1sbnM9Imh0dHA6Ly93d3cudzMub3JnLzIwMDAvc3ZnIiBwcmVzZXJ2ZUFzcGVjdFJhdGlvPSJ4TWlkWU1pZCIgdmVyc2lvbj0iMS4xIiB2aWV3Qm94PSIwLjI5NzM2MTM3MzkwMTM2NzIgMC4zNjQzNzc4ODYwNTY5IDI1NS4zODY0MTM1NzQyMTg3NSAyNjMuMjk4NDYxOTE0MDYyNSIgaGVpZ2h0PSI3OTcuODc0MTI3MDEyMzEwNiIgd2lkdGg9Ijc3My44OTgyMjI5NTIxNzgiPgogICAgPGc+CiAgICAgICAgPHBhdGggZmlsbD0iIzAwMDAwMCIgZD0iTTI1NS4wMDc5MjYsMTU4LjA4NTYxNyBDMjUzLjQ3MzEwOSwxNTMuNDM3NDEzIDI0OS40NTIxOTQsMTUwLjE5OTI3OSAyNDQuMjUxNzg4LDE0OS40MjE4MiBDMjQxLjc5OTk4MiwxNDkuMDU1ODUyIDIzOC45OTE2NjcsMTQ5LjIxMTkzNSAyMzUuNjY4OTg4LDE0OS44OTcxNjQgQzIyOS44NzczNTgsMTUxLjA5MjAyOCAyMjUuNTgwMzQyLDE1MS41NDY2NzkgMjIyLjQ0NDQ5LDE1MS42MzUzNjMgQzIzNC4yODA3OTQsMTMxLjY1MDIxNyAyNDMuOTA1OTIxLDEwOC44NTk3MTQgMjQ5LjQ0Njg3Myw4Ny40MDY1NTg5IEMyNTguNDA2MjgyLDUyLjcxODI2MzMgMjUzLjYxODU1LDM2LjkxNTQzNjUgMjQ4LjAyMzc5NywyOS43NjY5NDY5IEMyMzMuMjE3MTgyLDEwLjg0Nzc3ODMgMjExLjYxNDQ0OCwwLjY4MzQ1NDk2NSAxODUuNTUxNTIsMC4zNzE4Nzk5MDggQzE3MS42NDk0NzgsMC4yMDIxOTg2MTQgMTU5LjQ0MzY1OCwyLjk0NzI1MTczIDE1My4wNzczNTgsNC45MjA3NTc1MSBDMTQ3LjE0OTE1NSwzLjg3NTQ3MzQ0IDE0MC43NzQ1NzcsMy4yOTEzNDQxMSAxMzQuMDg2MDYsMy4xODMxNTAxMiBDMTIxLjU1MDMzNywyLjk4MzMxNjQgMTEwLjQ3MzE2NCw1LjcxNTk1MzgxIDEwMS4wMDgyNTksMTEuMzMyNTgyIEM5NS43NjcwNTc3LDkuNTYxMjc0ODMgODcuMzU4MDc4NSw3LjA2MzM1MzM1IDc3LjY0NjA0MTYsNS40Njg4MjIxNyBDNTQuODAzNTEwNCwxLjcxODY4ODIyIDM2LjM5Mzk3NjksNC42NDExMDg1NSAyMi45MjgyNTg3LDE0LjE1MzkwMyBDNi42MjIzMDAyMywyNS42NzIxMjkzIC0wLjkzNzA5MDA2OSw0NS42ODM4Nzk5IDAuNDYxMTU0NzM0LDczLjYzMzk5NTQgQzAuOTA0NTcyNzQ4LDgyLjUwODI2NzkgNS44NjkwODA4MywxMDkuNTA3Njk1IDEzLjY4NTA2MjQsMTM1LjExNDE5OSBDMTguMTc3MTgyNCwxNDkuODMxNTM4IDIyLjk2NzI3OTQsMTYyLjA1MzkxMiAyNy45MjIzMjc5LDE3MS40NDM3MzIgQzM0Ljk0OTAyNTQsMTg0Ljc1ODY4OCA0Mi40Njc2MjEyLDE5Mi42MDAwOTIgNTAuOTA4NTI2NiwxOTUuNDE1NTAxIEM1NS42NDAwOTI0LDE5Ni45OTIyOTYgNjQuMjM1ODk4NCwxOTguMDk1NTIgNzMuMjc3NDg3MywxOTAuNTY2ODczIEM3NC40MjMyNzk0LDE5MS45NTM4ODUgNzUuOTUxNTkzNSwxOTMuMzMzMjEgNzcuOTgxMjY1NiwxOTQuNjEzODAxIEM4MC41NTc4MTk5LDE5Ni4yMzkwNzYgODMuNzA5MDQzOSwxOTcuNTY2OTY1IDg2Ljg1NTUzODEsMTk4LjM1Mzg4NSBDOTguMTk2OTg4NSwyMDEuMTg5Mzk1IDEwOC44MjAxMDIsMjAwLjQ3OTkyNiAxMTcuODgyOTc1LDE5Ni41MDYzMDkgQzExNy45Mzg1NSwxOTguMTE3OTg2IDExNy45ODE3MDksMTk5LjY1ODEyNSAxMTguMDE4MzY1LDIwMC45ODc3ODggQzExOC4wNzg2NywyMDMuMTQ1MTY0IDExOC4xMzc3OTIsMjA1LjI1OTk3MiAxMTguMjE3MDE2LDIwNy4yMzc2MTcgQzExOC43NTM4NDgsMjIwLjYxMjI4NiAxMTkuNjYzNzQxLDIzMS4wMTEzMjYgMTIyLjM1OTcyMywyMzguMjg2OTI4IEMxMjIuNTA3NTI5LDIzOC42ODc3NzggMTIyLjcwNjc3MSwyMzkuMjk3MzMgMTIyLjkxNzI0NywyMzkuOTQzNTM4IEMxMjQuMjYxNjkxLDI0NC4wNjIwMDUgMTI2LjUxMTI5OCwyNTAuOTU1Njc3IDEzMi4yMzI1NzMsMjU2LjM1NTMyNiBDMTM4LjE1ODQxMSwyNjEuOTQ3NzE0IDE0NS4zMjUyMjksMjYzLjY2MzQ0NiAxNTEuODg4OTk4LDI2My42NjI4NTUgQzE1NS4xODA5MzMsMjYzLjY2Mjg1NSAxNTguMzIyMTA2LDI2My4yMzEyNjEgMTYxLjA3NjYxOSwyNjIuNjQwNjI4IEMxNzAuODk3NDQxLDI2MC41MzY0NjIgMTgyLjA1MDI5MSwyNTcuMzI5NjYzIDE5MC4xMTgxMzQsMjQ1Ljg0MjE4IEMxOTcuNzQ1NTE1LDIzNC45ODE5ODYgMjAxLjQ1MzY3MiwyMTguNjI1MTgyIDIwMi4xMjQ3MTEsMTkyLjg1MTM2MyBDMjAyLjIxMTYyMSwxOTIuMTIyOTc1IDIwMi4yOTIwMjgsMTkxLjQyNzEwNCAyMDIuMzY5NDc4LDE5MC43NjM3NTEgQzIwMi40MjE1MDYsMTkwLjMxNjE5NCAyMDIuNDc0NzE2LDE4OS44NTg1ODcgMjAyLjUyODUxNywxODkuNDAyMTYyIEwyMDQuMzI1ODM4LDE4OS41NjAwMTggTDIwNC43ODg3NjcsMTg5LjU5MTM1MyBDMjE0Ljc5MTA5NSwxOTAuMDQ3MTg3IDIyNy4wMjExNTUsMTg3LjkyNTg3NSAyMzQuNTMyMDY1LDE4NC40MzcwNjIgQzI0MC40NjczNjMsMTgxLjY4MjU1IDI1OS40ODU4NTcsMTcxLjY0MjM4MyAyNTUuMDA3OTI2LDE1OC4wODU2MTciPgoKPC9wYXRoPgogICAgICAgIDxwYXRoIGZpbGw9IiMzMzY3OTEiIGQ9Ik0yMzcuOTA1NTg5LDE2MC43MjI0NzYgQzIwOC4xNjU4MzgsMTY2Ljg1NzAxNiAyMDYuMTIxMzg2LDE1Ni43ODc4OCAyMDYuMTIxMzg2LDE1Ni43ODc4OCBDMjM3LjUyMTg4NSwxMTAuMTk0Njk3IDI1MC42NDgyNCw1MS4wNTE2MDI4IDIzOS4zMjAzODgsMzYuNTc2NjY1MSBDMjA4LjQxNzEwOSwtMi45MDgyMzA5NSAxNTQuOTIxOTc3LDE1Ljc2NTU3OTcgMTU0LjAyOTIyOSwxNi4yNTAzODM0IEwxNTMuNzQxODk0LDE2LjMwMTgxOTkgQzE0Ny44NjYzMDksMTUuMDgyMTI0NyAxNDEuMjkwNzE2LDE0LjM1NTUxMDQgMTMzLjkwMDQxNiwxNC4yMzQ5MDA3IEMxMjAuNDQzNTY2LDE0LjAxNDM3NDEgMTEwLjIzNjA4MywxNy43NjI3MzQ0IDEwMi40OTA0NTcsMjMuNjM2NTQ1IEMxMDIuNDkwNDU3LDIzLjYzNjU0NSA3LjA2MDM5NzIzLC0xNS42NzY4OTYxIDExLjQ5ODcxNTksNzMuMDgwNjA5NyBDMTIuNDQyOTAwNyw5MS45NjMxMjI0IDM4LjU2MjU4NjYsMjE1Ljk1NDAzMiA2OS43MTcxMzYzLDE3OC41MDI5NDcgQzgxLjEwNDExMDksMTY0LjgwODQyNSA5Mi4xMDYxOTg2LDE1My4yMjkzMDMgOTIuMTA2MTk4NiwxNTMuMjI5MzAzIEM5Ny41NzA4ODIyLDE1Ni44NTk0MTggMTA0LjExMjc3NiwxNTguNzExMTMyIDExMC45NzA5NzUsMTU4LjA0NjAwNSBMMTExLjUwMzY2NywxNTcuNTkzNzE4IEMxMTEuMzM4MTI1LDE1OS4yOTQwNzkgMTExLjQxMzgwMSwxNjAuOTU3MTkyIDExMS43MTcwOTksMTYyLjkyNTk2OCBDMTAzLjY5MTIzMywxNzEuODkzMDYyIDEwNi4wNDk2MjYsMTczLjQ2NzQ5MiA5MC4wMDU1Nzk3LDE3Ni43NzAwNjkgQzczLjc3MTE1OTQsMTgwLjExNTgwNiA4My4zMDgxOTQsMTg2LjA3MjM4OCA4OS41MzQ5NjU0LDE4Ny42MjkwODEgQzk3LjA4MzcxMzYsMTg5LjUxNjg1OSAxMTQuNTQ3ODgsMTkyLjE5MDk2NSAxMjYuMzQ4MTIsMTc1LjY3MjE2NiBMMTI1Ljg3NzUwNiwxNzcuNTU2OTg4IEMxMjkuMDIyMjI2LDE4MC4wNzU2MDMgMTMxLjIzMDQ0OCwxOTMuOTQwMzk3IDEzMC44NjAzNDIsMjA2LjUwODYzNyBDMTMwLjQ5MDIzNiwyMTkuMDc3NDY5IDEzMC4yNDMxMDQsMjI3LjcwNjM4MyAxMzIuNzIwOTI0LDIzNC40NDYzMzcgQzEzNS4xOTg3NDQsMjQxLjE4NjI5MSAxMzcuNjY4Mjg2LDI1Ni4zNTExODcgMTU4Ljc1OTYxMiwyNTEuODMxODcxIEMxNzYuMzgzNDA5LDI0OC4wNTUxMzIgMTg1LjUxNjA0NiwyMzguMjY4MDA5IDE4Ni43ODY1ODcsMjIxLjk0MjU0IEMxODcuNjg4MjAzLDIxMC4zMzYyMjIgMTg5LjcyODUxNywyMTIuMDUxOTU0IDE4OS44NTc0MDQsMjAxLjY3NTM4MSBMMTkxLjQ5MzkxMiwxOTYuNzYyOTAxIEMxOTMuMzgxMDk5LDE4MS4wMjk4MzggMTkxLjc5MzY2MywxNzUuOTU0MTggMjAyLjY1MTQ5MiwxNzguMzE0OTM4IEwyMDUuMjkwMTI1LDE3OC41NDY2OTcgQzIxMy4yODE3LDE3OC45MTAzIDIyMy43NDEwNDQsMTc3LjI2MTM3NiAyMjkuODc5NzIzLDE3NC40MDgxMjkgQzI0My4wOTgzMDksMTY4LjI3MzU4OSAyNTAuOTM3OTQsMTU4LjAzMTIyNCAyMzcuOTA0NDA2LDE2MC43MjI0NzYgTDIzNy45MDU1ODksMTYwLjcyMjQ3NiI+Cgo8L3BhdGg+CiAgICAgICAgPHBhdGggZmlsbD0iI0ZGRkZGRiIgZD0iTTEwOC4wNzYzNDIsODEuNTI1MDYyNCBDMTA1LjM5NjkxNSw4MS4xNTIgMTAyLjk2OTM0OSw4MS40OTcyNzQ4IDEwMS43NDEzNzYsODIuNDI2Njc5IEMxMDEuMDUwMjM2LDgyLjk0OTkxMjIgMTAwLjgzNjgwNCw4My41NTU5MTY5IDEwMC43Nzk0NTUsODMuOTczMzIxIEMxMDAuNjI1MTQ1LDg1LjA3ODMxODcgMTAxLjM5OTY0OSw4Ni4yOTk3ODc1IDEwMS44NzQ5OTMsODYuOTMwMDMyMyBDMTAzLjIyMDYxOSw4OC43MTM3NTUyIDEwNS4xODcwMyw4OS45Mzk5NTM4IDEwNy4xMzMzMzksOTAuMjEwMTQzMiBDMTA3LjQxNTM1Myw5MC4yNDkxNjQgMTA3LjY5NTU5NCw5MC4yNjgwODMxIDEwNy45NzQ2NTEsOTAuMjY4MDgzMSBDMTExLjIyMDQ3MSw5MC4yNjgwODMxIDExNC4xNzA2NzksODcuNzQxMTkxNyAxMTQuNDMwODE4LDg1Ljg3NTg3OTkgQzExNC43NTU5OTEsODMuNTM5OTUzOCAxMTEuMzY0NzMsODEuOTgyNjY5NyAxMDguMDc2MzQyLDgxLjUyNTA2MjQiPgoKPC9wYXRoPgogICAgICAgIDxwYXRoIGZpbGw9IiNGRkZGRkYiIGQ9Ik0xOTYuODYwNDUzLDgxLjU5ODk2NTQgTDE5Ni44NTk4NjEsODEuNTk4OTY1NCBDMTk2LjYwNDQ1Myw3OS43Njc5NDQ2IDE5My4zNDU2MjYsNzkuMjQ1ODkzOCAxOTAuMjUzNTI0LDc5LjY3NTcxMzYgQzE4Ny4xNjYxNTIsODAuMTA2MTI0NyAxODQuMTcxNjAzLDgxLjQ5OTYzOTcgMTg0LjQyMTY5MSw4My4zMzQ3OTkxIEMxODQuNjIyNzA3LDg0Ljc2MjAxMzkgMTg3LjE5ODY3LDg3LjE5ODQ0OCAxOTAuMjQ5Mzg2LDg3LjE5Nzg1NjggQzE5MC41MDY1NjgsODcuMTk3ODU2OCAxOTAuNzY2NzA3LDg3LjE4MDcxMTMgMTkxLjAyODYxOSw4Ny4xNDQwNTU0IEMxOTMuMDY0Nzk0LDg2Ljg2MjA0MTYgMTk0LjU1ODgxOCw4NS41NjkwMzQ2IDE5NS4yNjgyODYsODQuODIzNTAxMiBDMTk2LjM0OTYzNSw4My42ODgzNTEgMTk2Ljk3NDU1OSw4Mi40MjE5NDkyIDE5Ni44NjA0NTMsODEuNTk4OTY1NCI+Cgo8L3BhdGg+CiAgICAgICAgPHBhdGggZmlsbD0iI0ZGRkZGRiIgZD0iTTI0Ny44MDIwODgsMTYwLjAyNTQyMyBDMjQ2LjY2ODEyLDE1Ni41OTYzMjMgMjQzLjAxODQ5NCwxNTUuNDkyNTA4IDIzNi45NTQzMDksMTU2Ljc0NTMxMiBDMjE4Ljk0OTE3MywxNjAuNDYxMTU1IDIxMi41MDEyODQsMTU3Ljg4Njk2NSAyMTAuMzgzNTIsMTU2LjMyNzkwOCBDMjI0LjM3ODk3NSwxMzUuMDA3MTg3IDIzNS44OTE4OCwxMDkuMjM2MzIzIDI0Mi4xMDI2ODgsODUuMTkwNjUxMyBDMjQ1LjA0NTIxLDczLjgwMDcyMDYgMjQ2LjY3MDQ4NSw2My4yMjMxMzE2IDI0Ni44MDI5MTksNTQuNjAxOTAzIEMyNDYuOTQ5NTQzLDQ1LjEzNzU4ODkgMjQ1LjMzODQ1NywzOC4xODQyMDMyIDI0Mi4wMTQwMDUsMzMuOTM2MjU4NyBDMjI4LjYxMTU0NywxNi44MTA4NjM3IDIwOC45NDIxMTUsNy42MjUwMTYxNyAxODUuMTMxNzUxLDcuMzcyNTYzNTEgQzE2OC43NjMxMjIsNy4xODg2OTI4NCAxNTQuOTMzMjEsMTEuMzc4MTA2MiAxNTIuMjUyMDA5LDEyLjU1NTgyNDUgQzE0Ni42MDU4MiwxMS4xNTE2Njc0IDE0MC40NTA1ODcsMTAuMjg5NjYyOCAxMzMuNzUwMjQ1LDEwLjE3OTY5NTIgQzEyMS40NjE2NTQsOS45ODEwNDM4OCAxMTAuODQwMzE0LDEyLjkyMjk3NDYgMTAyLjA0NTg1NywxOC45MTkxNjg2IEM5OC4yMjU5NTg0LDE3LjQ5Nzg2NjEgODguMzUzNjk5OCwxNC4xMDg5NyA3Ni4yODE0OTY1LDEyLjE2NDQzNDIgQzU1LjQwODkyMzgsOC44MDMzMjU2NCAzOC44MjMzMTY0LDExLjM0OTcyNzUgMjYuOTg3MDExNSwxOS43MzUwNTc3IEMxMi44NjM4NTIyLDI5Ljc0MDkzMyA2LjM0MzgzMzcyLDQ3LjYyNjY0MiA3LjYwNzI3OTQ1LDcyLjg5NDM3NDEgQzguMDMyMzY5NTIsODEuMzk2MTc1NSAxMi44NzU2NzY3LDEwNy41NDc3ODggMjAuNTIwMjAzMiwxMzIuNTkzMjE5IEMzMC41ODIyNDQ4LDE2NS41NTY5MTUgNDEuNTE5Mjk3OSwxODQuMjE4MzA5IDUzLjAyODA2NDcsMTg4LjA1NjUzNiBDNTQuMzc0ODczLDE4OC41MDU4NjYgNTUuOTI4NjA5NywxODguODIwMzk3IDU3LjY0MDc5NDUsMTg4LjgyMDM5NyBDNjEuODM5MDc2MiwxODguODIwMzk3IDY2Ljk4NTY4MTMsMTg2LjkyNzg4OSA3Mi4zNDA5ODg1LDE4MC40OTAwNTEgQzgxLjIzNTk1MzgsMTY5Ljc4ODg5NiA4OS41NDA4Nzc2LDE2MC44MjE4MDEgOTIuNjAyMjM1NiwxNTcuNTYzNTY2IEM5Ny4xMjYyODE4LDE1OS45OTIzMTQgMTAyLjA5NTUyLDE2MS4zNDc5OTEgMTA3LjE3OTQ1NSwxNjEuNDgzOTcyIEMxMDcuMTg4MzIzLDE2MS42MTY5OTggMTA3LjIwMTkyMSwxNjEuNzUwMDIzIDEwNy4yMTM3NDYsMTYxLjg4MjQ1NyBDMTA2LjE5Mzg4NSwxNjMuMDkyMTAyIDEwNS4zNTczMDMsMTY0LjE1MjE2NiAxMDQuNjQ0Mjg2LDE2NS4wNTczMyBDMTAxLjEyMjM2NSwxNjkuNTI4MTY2IDEwMC4zODkyNDcsMTcwLjQ1ODc1MyA4OS4wNTE5MzUzLDE3Mi43OTM0OTcgQzg1LjgyNzM5OTUsMTczLjQ1ODYyNCA3Ny4yNjExNTQ3LDE3NS4yMjQwMTggNzcuMTM2NDA2NSwxODEuMjI3ODk4IEM3Ni45OTk4MzM3LDE4Ny43ODc1MjkgODcuMjYwNTI2NiwxOTAuNTQyNjMzIDg4LjQyOTk2NzcsMTkwLjgzNDY5NyBDOTIuNTA0MDkyNCwxOTEuODU0NTU5IDk2LjQyODYzNzQsMTkyLjM1NzY5MSAxMDAuMTcxNjc3LDE5Mi4zNTc2OTEgQzEwOS4yNzUzNDQsMTkyLjM1NzA5OSAxMTcuMjg1ODM4LDE4OS4zNjU1MDYgMTIzLjY4ODIwMywxODMuNTc2ODMxIEMxMjMuNDkwNzM0LDIwNi45NjI2OTcgMTI0LjQ2NjI1NCwyMzAuMDA2ODM2IDEyNy4yNzM5NzcsMjM3LjAyODIxMiBDMTI5LjU3MzI0NywyNDIuNzc1NTAxIDEzNS4xOTE2NDksMjU2LjgyMjk4NCAxNTIuOTM4NDIsMjU2LjgyMTgwMSBDMTU1LjU0MTU4LDI1Ni44MjE4MDEgMTU4LjQwODQyNSwyNTYuNTE5MDk1IDE2MS41NjE0MjMsMjU1Ljg0MzMyNiBDMTgwLjA4MjEwNiwyNTEuODcyMDc0IDE4OC4xMjQ1MjcsMjQzLjY4NjU3NyAxOTEuMjM2MTM5LDIyNS42NDAwNTUgQzE5Mi45MDEwMjUsMjE1Ljk5NTQxOCAxOTUuNzU4NDExLDE5Mi45NjM2OTUgMTk3LjEwMTY3MiwxODAuNjEwMDY5IEMxOTkuOTM3Nzc0LDE4MS40OTQ1NCAyMDMuNTg5MTczLDE4MS44OTk1MjkgMjA3LjUzNjE4NSwxODEuODk4OTM4IEMyMTUuNzY4Mzg4LDE4MS44OTg5MzggMjI1LjI2Njk5MywxODAuMTUwMDk3IDIzMS4yMjQxNjYsMTc3LjM4NDk0MiBDMjM3LjkxNTY0LDE3NC4yNzc0NjkgMjQ5Ljk5MTk4MiwxNjYuNjUwNjc5IDI0Ny44MDIwODgsMTYwLjAyNTQyMyBMMjQ3LjgwMjA4OCwxNjAuMDI1NDIzIFogTTIwMy42OTYxODUsNzYuNTQ0NTkxMiBDMjAzLjYzNDY5Nyw4MC4xOTE4NTIyIDIwMy4xMzI3NDgsODMuNTAyNzA2NyAyMDIuNjAwNjQ3LDg2Ljk1OTAwMjMgQzIwMi4wMjgzNDIsOTAuNjc2MDI3NyAyMDEuNDM1OTM1LDk0LjUxODk4MzggMjAxLjI4Njk0Nyw5OS4xODQzMzI2IEMyMDEuMTM5NzMyLDEwMy43MjQzNDIgMjAxLjcwNjcxNiwxMDguNDQ0Njc0IDIwMi4yNTUzNzIsMTEzLjAwODkyNCBDMjAzLjM2MzMyNiwxMjIuMjI4NDcxIDIwNC41MDAyNDksMTMxLjcyMDU3MyAyMDAuMDk4NTg3LDE0MS4wODY3NDQgQzE5OS40MTQ1NCwxMzkuODcxNzc4IDE5OC43NTQxNDMsMTM4LjU0NjI1NCAxOTguMTQ4NzMsMTM3LjA3ODI0NSBDMTk3LjYwMTg0OCwxMzUuNzUyMTI5IDE5Ni40MTQwNzksMTMzLjYyMTk0OSAxOTQuNzY5ODg1LDEzMC42NzM1MTUgQzE4OC4zNzA0NzYsMTE5LjE5Nzg1NyAxNzMuMzg1MzEyLDkyLjMyNDM2MDMgMTgxLjA1NjQ0Myw4MS4zNTgzMzcyIEMxODMuMzQwOTMzLDc4LjA5MzU5ODIgMTg5LjEzOTY1OCw3NC43Mzg0MDE4IDIwMy42OTYxODUsNzYuNTQ0NTkxMiBMMjAzLjY5NjE4NSw3Ni41NDQ1OTEyIFogTTE4Ni4wNTIyODYsMTQuNzU4MTMzOSBDMjA3LjM4NjAxNCwxNS4yMjkzMzk1IDIyNC4yNjEzMjEsMjMuMjEwMjcyNSAyMzYuMjA5OTU4LDM4LjQ3ODA0MTYgQzI0NS4zNzM5MzEsNTAuMTg5MDA2OSAyMzUuMjgyOTE5LDEwMy40NzYwMjggMjA2LjA2OTk0OSwxNDkuNDQ2NjUxIEMyMDUuNzgxNDMyLDE0OS4wODAwOTIgMjA1LjQ4NzU5NCwxNDguNzA5OTg2IDIwNS4xODM3MDQsMTQ4LjMzMDQyIEMyMDUuMDYyNTAzLDE0OC4xNzg0NzYgMjA0LjkzODkzOCwxNDguMDI0MTY2IDIwNC44MTQxODksMTQ3Ljg2ODA4MyBDMjEyLjM2MjkzOCwxMzUuNDAwOTQyIDIxMC44ODY2NTEsMTIzLjA2NjIzNiAyMDkuNTcyOTUyLDExMi4xMjk3NzQgQzIwOS4wMzMxNjQsMTA3LjY0MTc5MiAyMDguNTIzNTI5LDEwMy40MDI3MTYgMjA4LjY1MzAwNyw5OS40MjE0MTM0IEMyMDguNzg3MjE1LDk1LjIwMDA3MzkgMjA5LjM0NTMzLDkxLjU4MTE5MTcgMjA5Ljg4NDUyNyw4OC4wODExNDU1IEMyMTAuNTQ4NDcxLDgzLjc2NzU3NTEgMjExLjIyMzA1OCw3OS4zMDUwMTYyIDIxMS4wMzY4MjIsNzQuMDQzNzEzNiBDMjExLjE3NTc2LDczLjQ5MjEwMTYgMjExLjIzMTkyNiw3Mi44Mzk5ODE1IDIxMS4xNTkyMDYsNzIuMDY2MDY5MyBDMjEwLjY4Mzg2MSw2Ny4wMjA1NjM1IDIwNC45MjQxNTcsNTEuOTIyNDc1OCAxOTMuMTgzNjMsMzguMjU1MTUwMSBDMTg2Ljc2MjM0NiwzMC43ODA4OTYxIDE3Ny4zOTY3NjcsMjIuNDE1NjY3NCAxNjQuNjA5Nzc0LDE2Ljc3MzYxNjYgQzE3MC4xMDk5MzEsMTUuNjMzNzM2NyAxNzcuNjMxNDgzLDE0LjU3MDcxNTkgMTg2LjA1MjI4NiwxNC43NTgxMzM5IEwxODYuMDUyMjg2LDE0Ljc1ODEzMzkgWiBNNjYuNjc0MTA2MiwxNzUuNzc3OTk1IEM2MC43NzQyODE4LDE4Mi44NzE1MDEgNTYuNjk5NTY1OCwxODEuNTEyMjc3IDU1LjM1OTg1MjIsMTgxLjA2NTkwMyBDNDYuNjI5MjQ3MSwxNzguMTUzNTMzIDM2LjQ5OTgwNiwxNTkuNzAyMDIzIDI3LjU2ODc3NiwxMzAuNDQxNzU1IEMxOS44NDA4ODY4LDEwNS4xMjM3NjkgMTUuMzI0NTI2Niw3OS42NjUwNzE2IDE0Ljk2NzQyNzMsNzIuNTI2MDQxNiBDMTMuODM4NzgwNiw0OS45NDgzNzg4IDE5LjMxMTc0MTMsMzQuMjEyOTUxNSAzMS4yMzQ5NTYxLDI1Ljc1NzI2NTYgQzUwLjYzODkyODQsMTEuOTk2NTI2NiA4Mi41NDEzNzY0LDIwLjIzMjg2ODQgOTUuMzYwMjk1NiwyNC40MTA0NTczIEM5NS4xNzU4MzM3LDI0LjU5MTk2MyA5NC45ODQyNzcxLDI0Ljc2MjIzNTYgOTQuODAxNTg4OSwyNC45NDY2OTc1IEM3My43NjY0Mjk2LDQ2LjE5MTE1MDEgNzQuMjY1NDIyNiw4Mi40ODc1NzUxIDc0LjMxNjg1OTEsODQuNzA1ODQ3NiBDNzQuMzE1MDg1NSw4NS41NjE5NCA3NC4zODY2MjM2LDg2Ljc3Mzk0OTIgNzQuNDg1MzU4LDg4LjQ0MTIwMDkgQzc0Ljg0NzE4NzEsOTQuNTQ1NTg4OSA3NS41MjA1OTEyLDEwNS45MDc3MzIgNzMuNzIxNDk2NSwxMTguNzc1MTMyIEM3Mi4wNDg5MjM4LDEzMC43MzIwNDYgNzUuNzM0NjE0MywxNDIuNDM1MzI2IDgzLjgzMjAxODUsMTUwLjg4MzkxNyBDODQuNjcwMzc0MSwxNTEuNzU4MzM3IDg1LjU0NTM4NTcsMTUyLjU3OTU0NyA4Ni40NDkzNjcyLDE1My4zNTIyNzcgQzgyLjg0NDY3NDQsMTU3LjIxMjM3OSA3NS4wMTE1NDczLDE2NS43NDc4OCA2Ni42NzQxMDYyLDE3NS43Nzc5OTUgTDY2LjY3NDEwNjIsMTc1Ljc3Nzk5NSBaIE04OS4xNTMwMzQ2LDE0NS43ODQ2MSBDODIuNjI2NTEyNywxMzguOTc1NDgzIDc5LjY2MjcwNjcsMTI5LjUwMzQ4MyA4MS4wMjAxNTcsMTE5Ljc5NTU4NCBDODIuOTIwMzUxLDEwNi4yMDI3NTMgODIuMjE4NTY4MSw5NC4zNjQ2NzQ0IDgxLjg0MTk1ODQsODguMDA0ODc3NiBDODEuNzg5MzM5NSw4Ny4xMTUwODU1IDgxLjc0MjYzMjgsODYuMzM1MjYxIDgxLjcxNDg0NTMsODUuNzE5Nzk2OCBDODQuNzg4MDI3Nyw4Mi45OTU0MzY1IDk5LjAyODg0MDYsNzUuMzY0NTA4MSAxMDkuMTg0Mjk2LDc3LjY5MTU2NTggQzExMy44MTk0OTIsNzguNzUzNDA0MiAxMTYuNjQyNTg3LDgxLjkwODc2NjcgMTE3LjgxNjc1OCw4Ny4zMzczODU3IEMxMjMuODkzMzU4LDExNS40NDAwMzcgMTE4LjYyMTQxMywxMjcuMTUzMzY3IDExNC4zODUyOTMsMTM2LjU2NTY1NCBDMTEzLjUxMjA1NSwxMzguNTA0ODY4IDExMi42ODcyOTgsMTQwLjMzNzY2MyAxMTEuOTgyNTU5LDE0Mi4yMzQzMDkgTDExMS40MzY4NTksMTQzLjY5OTk1NCBDMTEwLjA1NDU3NywxNDcuNDA2MzM3IDEwOC43Njg2NjUsMTUwLjg1MTk5MSAxMDcuOTcxNjk1LDE1NC4xMjQ0MTYgQzEwMS4wMzQyNzMsMTU0LjEwMzEzMiA5NC4yODQ4NTkxLDE1MS4xMzk5MTcgODkuMTUzMDM0NiwxNDUuNzg0NjEgTDg5LjE1MzAzNDYsMTQ1Ljc4NDYxIFogTTkwLjIxNzgyOTEsMTgzLjY4NTAyNSBDODguMTkyMjk1NiwxODMuMTc4OTM4IDg2LjM3MDE0MzIsMTgyLjI5OTc4OCA4NS4zMDEyMTAyLDE4MS41NzA4MDggQzg2LjE5Mzk1ODQsMTgxLjE1MDQ0OCA4Ny43ODMxNjg2LDE4MC41NzkzMjYgOTAuNTM4ODYzNywxODAuMDExNzUxIEMxMDMuODc2Mjg2LDE3Ny4yNjU1MTUgMTA1LjkzNTUyLDE3NS4zMjgwNzQgMTEwLjQzMzU1MiwxNjkuNjE2ODUgQzExMS40NjUyMzgsMTY4LjMwNzg4IDExMi42MzQwODgsMTY2LjgyMzMxNiAxMTQuMjUyODU5LDE2NS4wMTUzNTMgQzExNC4yNTM0NSwxNjUuMDE0MTcxIDExNC4yNTQwNDIsMTY1LjAxMzU4IDExNC4yNTQ2MzMsMTY1LjAxMjk4OCBDMTE2LjY2NjIzNiwxNjIuMzEzNDYgMTE3Ljc2ODg2OCwxNjIuNzcxMDY3IDExOS43Njg5NzksMTYzLjYwMDU1NCBDMTIxLjM5MDExNSwxNjQuMjcxNTk0IDEyMi45Njg2ODQsMTY2LjMwMzAzOSAxMjMuNjA4OTc5LDE2OC41MzkwNDggQzEyMy45MTE2ODYsMTY5LjU5NDk3NSAxMjQuMjUyMjMxLDE3MS41OTk4MTUgMTIzLjEzODk1NiwxNzMuMTU4ODczIEMxMTMuNzQyNjMzLDE4Ni4zMTQ3OSAxMDAuMDUxMDY3LDE4Ni4xNDU3IDkwLjIxNzgyOTEsMTgzLjY4NTAyNSBMOTAuMjE3ODI5MSwxODMuNjg1MDI1IFogTTE2MC4wMTY1NTQsMjQ4LjYzNzQ4NyBDMTQzLjcwMDU0NSwyNTIuMTMzMzk1IDEzNy45MjM2OTUsMjQzLjgwODM3IDEzNC4xMTY4MDQsMjM0LjI5MTQzNiBDMTMxLjY1OTY3NywyMjguMTQ2ODQ1IDEzMC40NTIzOTcsMjAwLjQ0MDMxNCAxMzEuMzA5MDgxLDE2OS44NDM4OCBDMTMxLjMyMDMxNCwxNjkuNDM2NTI3IDEzMS4yNjIzNzQsMTY5LjA0MzM2MyAxMzEuMTUwMDQyLDE2OC42NzM4NDggQzEzMS4wNTI0OSwxNjcuOTYwMjQgMTMwLjkwMjMxOSwxNjcuMjM4MzU2IDEzMC42OTQyMDgsMTY2LjUxMTc0MSBDMTI5LjQxOTUyOSwxNjIuMDU5ODI0IDEyNi4zMTUwMTIsMTU4LjMzNTcwNCAxMjIuNTkwMywxNTYuNzkyMDE4IEMxMjEuMTEwNDY3LDE1Ni4xNzg5MTkgMTE4LjM5Mzc5MiwxNTUuMDUzODIgMTE1LjEyOTY0NCwxNTUuODg4NjI4IEMxMTUuODI2MTA2LDE1My4wMjA2IDExNy4wMzMzODYsMTQ5Ljc4MjQ2NyAxMTguMzQxNzY0LDE0Ni4yNzUzMjYgTDExOC44OTEwMTIsMTQ0Ljc5OTYzIEMxMTkuNTA5NDMyLDE0My4xMzY1MTcgMTIwLjI4NDUyNywxNDEuNDEzNjkxIDEyMS4xMDUxNDUsMTM5LjU5MDM1NiBDMTI1LjUzODE0MywxMjkuNzQxNzQ2IDEzMS42MDk0MjMsMTE2LjI1Mjk3IDEyNS4wMjAyMzEsODUuNzc5NTEwNCBDMTIyLjU1MTg3MSw3NC4zNjU5MzA3IDExNC4zMTAyMDgsNjguNzkyNDYxOSAxMDEuODE1ODcxLDcwLjA4NjY1MTMgQzk0LjMyNTA2MjQsNzAuODYxNzQ2IDg3LjQ3Mjc3Niw3My44ODQwODMxIDg0LjA1NDkwOTksNzUuNjE2OTYwNyBDODMuMzIwMDE4NSw3NS45ODk0MzE5IDgyLjY0Nzc5NjgsNzYuMzQ4ODk2MSA4Mi4wMTk5MTY5LDc2LjY5OTQ5MTkgQzgyLjk3MzU2MTIsNjUuMTk5MDAyMyA4Ni41NzgyNTQsNDMuNzA3NDE4IDEwMC4wNjA1MjcsMzAuMTA5ODU2OCBDMTA4LjU0ODczLDIxLjU0ODkzMyAxMTkuODU0MTE1LDE3LjMyMTA5MDEgMTMzLjYyODQ1MywxNy41NDg3MTEzIEMxNjAuNzY4NTkxLDE3Ljk5MzMxMTggMTc4LjE3MjQ1MywzMS45MjEzNjcyIDE4Ny45OTQ0NTcsNDMuNTI3Njg1OSBDMTk2LjQ1NzgyOSw1My41Mjk0MjI2IDIwMS4wNDA5OTgsNjMuNjAzODc5OSAyMDIuODcwMjQ1LDY5LjAzNzIyODYgQzE4OS4xMTU0MTgsNjcuNjM4OTgzOCAxNzkuNzYwNDgsNzAuMzU0NDc1OCAxNzUuMDE3NjgxLDc3LjEzNDA0MTYgQzE2NC43MDA4MjIsOTEuODgxNTMzNSAxODAuNjYyMDk3LDEyMC41MDYyMzYgMTg4LjMzMzIyOSwxMzQuMjYyODM2IEMxODkuNzM5NzUxLDEzNi43ODQ0MDYgMTkwLjk1NDEyNSwxMzguOTYzMDY3IDE5MS4zMzYwNTUsMTM5Ljg4ODkyNCBDMTkzLjgzMzk3NywxNDUuOTQzMDU4IDE5Ny4wNjc5NzIsMTQ5Ljk4NDY2NSAxOTkuNDI5MzIxLDE1Mi45MzU0NjQgQzIwMC4xNTI5NzksMTUzLjgzOTQ0NiAyMDAuODU1MzUzLDE1NC43MTYyMzEgMjAxLjM4OTIyOSwxNTUuNDgxODY2IEMxOTcuMjIzNDY0LDE1Ni42ODMyMzMgMTg5Ljc0MDM0MiwxNTkuNDU3ODQ4IDE5MC40MjIwMjMsMTczLjMyODU1NCBDMTg5Ljg3MjE4NSwxODAuMjg5MDM1IDE4NS45NjA2NDcsMjEyLjg3NDkzOCAxODMuOTc0MTM0LDIyNC4zODc4NDMgQzE4MS4zNTE0NjQsMjM5LjU5NzY3MiAxNzUuNzU0MzQ2LDI0NS4yNjMzNzIgMTYwLjAxNjU1NCwyNDguNjM3NDg3IEwxNjAuMDE2NTU0LDI0OC42Mzc0ODcgWiBNMjI4LjEyMDgzMSwxNzAuNzAwNTY0IEMyMjMuODYxMDYyLDE3Mi42NzgyMDggMjE2LjczMjA4MywxNzQuMTYxNTg5IDIwOS45NTk2MTIsMTc0LjQ3OTY2NyBDMjAyLjQ3OTQ0NiwxNzQuODMwMjYzIDE5OC42NzE5NjMsMTczLjY0MTkwMyAxOTcuNzc2MjU5LDE3Mi45MTExNSBDMTk3LjM1NTMwNywxNjQuMjY3NDU1IDIwMC41NzMzMzksMTYzLjM2NDA2NSAyMDMuOTc4MTk5LDE2Mi40MDgwNTUgQzIwNC41MTMyNTYsMTYyLjI1NzI5MyAyMDUuMDM1MzA3LDE2Mi4xMTEyNjEgMjA1LjUzOTAzLDE2MS45MzUwNzYgQzIwNS44NTIzNzksMTYyLjE4OTg5NCAyMDYuMTk1Mjg5LDE2Mi40NDI5MzggMjA2LjU3MDcxNiwxNjIuNjkwNjYxIEMyMTIuNTgyODczLDE2Ni42NTg5NTYgMjIzLjMwNjQ5NCwxNjcuMDg3MDAyIDIzOC40NDQ3ODUsMTYzLjk2MjM4MyBDMjM4LjUwMDM2LDE2My45NTA1NTkgMjM4LjU1NTkzNSwxNjMuOTM5OTE3IDIzOC42MTA5MTksMTYzLjkyODY4NCBDMjM2LjU2OTQyMywxNjUuODM3NzQ2IDIzMy4wNzUyODksMTY4LjQwMDExMSAyMjguMTIwODMxLDE3MC43MDA1NjQgTDIyOC4xMjA4MzEsMTcwLjcwMDU2NCBaIj4KCjwvcGF0aD4KICAgIDwvZz4KPC9zdmc+;" vertex="1" parent="1">
                    <mxGeometry x="986.16" y="560" width="67.84" height="70" as="geometry"/>
                </mxCell>
            </root>
        </mxGraphModel>
    </diagram>
</mxfile>